<svg width="65" height="68" viewBox="0 0 65 68" fill="none" xmlns="http://www.w3.org/2000/svg">
<path d="M51.26 1H18.58C15.7992 1 13.545 3.23858 13.545 6V45.5283C13.545 48.2897 15.7992 50.5283 18.58 50.5283H51.26C54.0408 50.5283 56.295 48.2897 56.295 45.5283V6C56.295 3.23858 54.0408 1 51.26 1Z" fill="#F69F92"/>
<path d="M45.2275 58.9245H40.4775C40.0051 58.9245 39.552 58.7381 39.218 58.4064C38.8839 58.0747 38.6962 57.6247 38.6962 57.1556C38.6962 56.6865 38.8839 56.2366 39.218 55.9048C39.552 55.5731 40.0051 55.3867 40.4775 55.3867H45.2275C45.5557 55.3904 45.8748 55.2795 46.1291 55.0733C46.3834 54.8672 46.5567 54.579 46.6189 54.259C46.6811 53.9389 46.6282 53.6074 46.4694 53.3221C46.3106 53.0368 46.056 52.816 45.75 52.6981L40.8575 50.7641C39.8292 50.3119 38.9859 49.5264 38.4659 48.5362C37.9459 47.5459 37.7799 46.4096 37.9952 45.3135C38.2104 44.2173 38.7941 43.2262 39.6507 42.5025C40.5073 41.7789 41.5859 41.3655 42.71 41.3301H47.46C47.9324 41.3301 48.3855 41.5165 48.7195 41.8482C49.0536 42.18 49.2413 42.6299 49.2413 43.099C49.2413 43.5681 49.0536 44.0181 48.7195 44.3498C48.3855 44.6815 47.9324 44.8679 47.46 44.8679H42.71C42.3835 44.8677 42.0673 44.9807 41.8158 45.1874C41.5643 45.3941 41.3934 45.6815 41.3325 46C41.2606 46.3183 41.3076 46.6517 41.4649 46.9381C41.6222 47.2245 41.8791 47.4443 42.1875 47.5566L47.08 49.5141C48.1083 49.9663 48.9516 50.7518 49.4716 51.742C49.9916 52.7323 50.1576 53.8686 49.9423 54.9647C49.7271 56.0609 49.1434 57.052 48.2868 57.7757C47.4302 58.4993 46.3516 58.9127 45.2275 58.9481V58.9245Z" fill="#1A4A71"/>
<path d="M43.9687 44.7736C43.4963 44.7736 43.0432 44.5872 42.7092 44.2555C42.3751 43.9238 42.1875 43.4738 42.1875 43.0047V41.2358C42.1875 40.7667 42.3751 40.3168 42.7092 39.9851C43.0432 39.6533 43.4963 39.467 43.9687 39.467C44.4411 39.467 44.8942 39.6533 45.2283 39.9851C45.5623 40.3168 45.75 40.7667 45.75 41.2358V43.0047C45.75 43.4738 45.5623 43.9238 45.2283 44.2555C44.8942 44.5872 44.4411 44.7736 43.9687 44.7736Z" fill="#1A4A71"/>
<path d="M43.9687 60.6934C43.4963 60.6934 43.0432 60.507 42.7092 60.1753C42.3751 59.8436 42.1875 59.3937 42.1875 58.9245V57.1556C42.1875 56.6865 42.3751 56.2366 42.7092 55.9049C43.0432 55.5731 43.4963 55.3868 43.9687 55.3868C44.4411 55.3868 44.8942 55.5731 45.2283 55.9049C45.5623 56.2366 45.75 56.6865 45.75 57.1556V58.9245C45.75 59.3937 45.5623 59.8436 45.2283 60.1753C44.8942 60.507 44.4411 60.6934 43.9687 60.6934Z" fill="#1A4A71"/>
<path d="M43.9687 66C40.7981 66 37.6986 65.0663 35.0623 63.317C32.4259 61.5677 30.3712 59.0814 29.1578 56.1724C27.9444 53.2634 27.627 50.0625 28.2455 46.9744C28.8641 43.8862 30.3909 41.0496 32.6329 38.8232C34.8749 36.5967 37.7314 35.0805 40.8412 34.4662C43.951 33.852 47.1743 34.1672 50.1036 35.3722C53.033 36.5771 55.5367 38.6176 57.2982 41.2356C59.0598 43.8536 60 46.9315 60 50.0802C60 52.1708 59.5853 54.2409 58.7797 56.1724C57.974 58.1039 56.7932 59.8589 55.3045 61.3372C53.8159 62.8155 52.0486 63.9881 50.1036 64.7882C48.1586 65.5882 46.074 66 43.9687 66ZM43.9687 37.6981C41.5027 37.6981 39.092 38.4243 37.0415 39.7848C34.991 41.1454 33.3928 43.0792 32.4491 45.3417C31.5054 47.6043 31.2585 50.0939 31.7396 52.4958C32.2207 54.8977 33.4082 57.1039 35.152 58.8356C36.8958 60.5673 39.1175 61.7466 41.5362 62.2243C43.9549 62.7021 46.462 62.4569 48.7403 61.5197C51.0187 60.5825 52.966 58.9955 54.3361 56.9593C55.7062 54.9231 56.4375 52.5291 56.4375 50.0802C56.4312 46.7981 55.1155 43.6523 52.7785 41.3316C50.4416 39.0109 47.2737 37.7043 43.9687 37.6981Z" fill="#1A4A71"/>
<path d="M22.5937 48.3113H11.9062C11.4338 48.3113 10.9807 48.125 10.6467 47.7932C10.3127 47.4615 10.125 47.0116 10.125 46.5425V25.316C10.125 24.8469 10.3127 24.397 10.6467 24.0653C10.9807 23.7335 11.4338 23.5472 11.9062 23.5472C12.3787 23.5472 12.8317 23.7335 13.1658 24.0653C13.4998 24.397 13.6875 24.8469 13.6875 25.316V44.7736H22.5937C23.0662 44.7736 23.5192 44.96 23.8533 45.2917C24.1873 45.6234 24.375 46.0733 24.375 46.5425C24.375 47.0116 24.1873 47.4615 23.8533 47.7932C23.5192 48.125 23.0662 48.3113 22.5937 48.3113Z" fill="#1A4A71"/>
<path d="M11.9062 41.2359C11.6722 41.237 11.4403 41.1917 11.2242 41.1026C11.008 41.0135 10.8119 40.8824 10.6475 40.717C10.3139 40.3854 10.1266 39.9358 10.1266 39.467C10.1266 38.9983 10.3139 38.5487 10.6475 38.217L17.0362 31.8727C18.0528 30.9068 19.4055 30.3677 20.8125 30.3677C22.2194 30.3677 23.5721 30.9068 24.5887 31.8727L25.9662 33.2406C26.1569 33.4341 26.3898 33.5816 26.6469 33.6717C26.904 33.7617 27.1785 33.792 27.4493 33.7601C27.72 33.7282 27.9798 33.635 28.2085 33.4877C28.4373 33.3404 28.629 33.1429 28.7687 32.9104L29.6 31.4953C29.8425 31.0919 30.2365 30.8006 30.6952 30.6856C31.154 30.5706 31.64 30.6413 32.0462 30.8821C32.4525 31.123 32.7458 31.5142 32.8616 31.9698C32.9774 32.4253 32.9062 32.9079 32.6637 33.3114L31.8087 34.7265C31.3934 35.421 30.8233 36.0116 30.1421 36.4531C29.461 36.8945 28.687 37.175 27.8796 37.273C27.0722 37.3709 26.253 37.2837 25.4849 37.0181C24.7168 36.7524 24.0202 36.3154 23.4487 35.7406L22 34.3727C21.6602 34.0525 21.2096 33.874 20.7412 33.874C20.2728 33.874 19.8223 34.0525 19.4825 34.3727L13.165 40.717C13.0005 40.8824 12.8045 41.0135 12.5883 41.1026C12.3722 41.1917 12.1403 41.237 11.9062 41.2359Z" fill="#1A4A71"/>
<path d="M20.8125 58.9245H8.34372C6.92647 58.9245 5.56727 58.3655 4.56512 57.3703C3.56297 56.3751 2.99997 55.0253 2.99997 53.6179L2.99997 14.7028C2.99997 13.2954 3.56297 11.9457 4.56512 10.9505C5.56727 9.95533 6.92647 9.39624 8.34372 9.39624H33.59C35.0057 9.4026 36.3621 9.96172 37.3662 10.9528L44.1825 17.7217C44.682 18.2116 45.078 18.7957 45.3472 19.4397C45.6163 20.0836 45.7533 20.7745 45.75 21.4717V27.0849C45.75 27.5541 45.5623 28.004 45.2283 28.3357C44.8942 28.6674 44.4411 28.8538 43.9687 28.8538C43.4963 28.8538 43.0432 28.6674 42.7092 28.3357C42.3751 28.004 42.1875 27.5541 42.1875 27.0849V21.4717C42.182 21.0038 41.9948 20.556 41.665 20.2217L34.8487 13.4528C34.515 13.121 34.0622 12.9344 33.59 12.934H8.34372C7.87322 12.9401 7.42371 13.1284 7.09099 13.4588C6.75826 13.7892 6.56862 14.2356 6.56247 14.7028V53.6179C6.56247 54.0871 6.75014 54.537 7.08419 54.8687C7.41823 55.2004 7.8713 55.3868 8.34372 55.3868H20.8125C21.2849 55.3868 21.738 55.5732 22.072 55.9049C22.4061 56.2366 22.5937 56.6865 22.5937 57.1557C22.5937 57.6248 22.4061 58.0747 22.072 58.4065C21.738 58.7382 21.2849 58.9245 20.8125 58.9245Z" fill="#1A4A71"/>
</svg>
