<svg width="25" height="25" viewBox="0 0 25 25" fill="none" xmlns="http://www.w3.org/2000/svg">
<rect width="24.8621" height="24.8621" rx="5.91954" fill="#EA5E45"/>
<g clip-path="url(#clip0)">
<path d="M9.31735 19.5345H15.5329C16.5931 19.5345 17.6101 19.1138 18.3603 18.3646C19.1106 17.6154 19.5329 16.5991 19.5345 15.5388V9.32333C19.5329 8.26306 19.1106 7.24675 18.3603 6.49759C17.6101 5.74842 16.5931 5.32764 15.5329 5.32764H9.31735C8.25913 5.33077 7.24524 5.75293 6.49752 6.50176C5.7498 7.25059 5.32914 8.26511 5.32758 9.32333V15.5388C5.32914 16.5971 5.7498 17.6116 6.49752 18.3604C7.24524 19.1092 8.25913 19.5314 9.31735 19.5345ZM6.20959 9.32333C6.21115 8.49958 6.53908 7.71002 7.12156 7.12754C7.70404 6.54506 8.4936 6.21713 9.31735 6.21557H15.5329C16.3566 6.21713 17.1462 6.54506 17.7287 7.12754C18.3111 7.71002 18.6391 8.49958 18.6406 9.32333V15.5388C18.6391 16.3626 18.3111 17.1522 17.7287 17.7346C17.1462 18.3171 16.3566 18.645 15.5329 18.6466H9.31735C8.4936 18.645 7.70404 18.3171 7.12156 17.7346C6.53908 17.1522 6.21115 16.3626 6.20959 15.5388V9.32333Z" fill="white"/>
<path d="M12.431 15.8348C13.104 15.8336 13.7615 15.633 14.3204 15.2583C14.8794 14.8836 15.3147 14.3516 15.5714 13.7295C15.8281 13.1075 15.8947 12.4233 15.7627 11.7634C15.6307 11.1035 15.3061 10.4976 14.8298 10.0222C14.3536 9.54676 13.7471 9.22317 13.087 9.09232C12.4269 8.96146 11.7428 9.02921 11.1212 9.287C10.4996 9.5448 9.96833 9.98107 9.59459 10.5407C9.22084 11.1003 9.02136 11.7581 9.02136 12.4311C9.02293 13.3343 9.38285 14.2001 10.0221 14.8382C10.6614 15.4764 11.5277 15.8348 12.431 15.8348ZM12.431 9.91527C12.9283 9.91644 13.4142 10.065 13.8271 10.3421C14.24 10.6193 14.5616 11.0126 14.7511 11.4724C14.9406 11.9322 14.9896 12.4379 14.8918 12.9255C14.7941 13.4131 14.554 13.8609 14.2019 14.2121C13.8499 14.5634 13.4016 14.8024 12.9137 14.899C12.4259 14.9956 11.9203 14.9454 11.461 14.7548C11.0016 14.5642 10.6091 14.2418 10.3329 13.8282C10.0567 13.4146 9.90929 12.9284 9.90929 12.4311C9.91086 11.7633 10.1772 11.1234 10.65 10.6518C11.1227 10.1801 11.7632 9.91527 12.431 9.91527Z" fill="white"/>
<path d="M16.48 9.11612C16.8887 9.11612 17.2199 8.78483 17.2199 8.37617C17.2199 7.96751 16.8887 7.63623 16.48 7.63623C16.0713 7.63623 15.7401 7.96751 15.7401 8.37617C15.7401 8.78483 16.0713 9.11612 16.48 9.11612Z" fill="white"/>
</g>
<defs>
<clipPath id="clip0">
<rect width="14.2069" height="14.2069" fill="white" transform="translate(5.32758 5.32764)"/>
</clipPath>
</defs>
</svg>
