<svg width="48" height="47" viewBox="0 0 48 47" fill="none" xmlns="http://www.w3.org/2000/svg">
<rect x="0.837891" y="0.716003" width="46.284" height="46.284" rx="13.6129" fill="#EA5E45"/>
<path d="M23.6269 31.8692C22.7772 32.6827 21.9398 33.4833 21.0963 34.2904C20.9288 34.4505 20.7676 34.617 20.5939 34.7708C20.0481 35.2447 19.3038 35.1294 18.944 34.4953C18.7641 34.1751 18.6339 33.8228 18.5284 33.4705C17.9454 31.5169 17.3748 29.5569 16.8103 27.5969C16.7483 27.3856 16.6553 27.2895 16.4568 27.219C14.8937 26.6746 13.3307 26.1237 11.7739 25.5665C11.3459 25.4128 10.9675 25.1822 10.7132 24.7786C10.3287 24.1637 10.3969 23.4976 10.9241 23.0172C11.1474 22.8186 11.4079 22.6521 11.6808 22.5304C18.6773 19.4303 25.68 16.3366 32.6764 13.2493C32.8935 13.1532 33.1168 13.0635 33.3463 13.0123C34.4318 12.7753 35.2443 13.5055 35.1016 14.6392C34.9838 15.5679 34.7977 16.4903 34.624 17.4062C33.7061 22.3767 32.7757 27.3471 31.8577 32.324C31.7088 33.1118 31.5724 33.8932 31.4173 34.6811C31.225 35.6803 30.1396 36.3336 29.0976 36.0454C28.8185 35.9685 28.5393 35.8148 28.3098 35.6291C26.8274 34.4505 25.3574 33.2591 23.8812 32.0742C23.8068 32.0037 23.72 31.9461 23.6269 31.8692ZM21.9522 29.0637C21.9895 29.1086 22.0081 29.1342 22.0267 29.1534C24.365 31.0173 26.7034 32.8876 29.0417 34.7515C29.6124 35.2063 30.2202 34.9501 30.3567 34.2199C30.6172 32.8172 30.8715 31.4144 31.132 30.0117C32.0686 24.9644 33.0114 19.9235 33.948 14.8762C33.979 14.7225 33.979 14.5559 33.9852 14.3958C33.9914 14.21 33.8921 14.114 33.7123 14.146C33.5138 14.1844 33.3029 14.2293 33.1168 14.3061C26.9329 17.0347 20.7427 19.7698 14.5588 22.4984C13.6967 22.8827 12.8283 23.2542 11.9724 23.6513C11.4948 23.8691 11.4886 24.042 11.9227 24.3367C12.0344 24.4135 12.1584 24.4776 12.2825 24.5224C13.7835 25.0541 15.2907 25.5793 16.7917 26.1237C17.0212 26.207 17.1825 26.1878 17.3872 26.0469C21.3072 23.3375 25.2396 20.6345 29.1658 17.9315C29.5504 17.6625 29.9349 17.3934 30.3257 17.1372C30.5862 16.9643 30.8715 17.0091 31.0576 17.2141C31.2499 17.4255 31.2561 17.7137 31.0762 17.9763C31.0328 18.034 30.9831 18.0916 30.9397 18.1492C30.0838 19.1933 29.2278 20.2309 28.3719 21.2686C26.2382 23.8627 24.1045 26.4568 21.9522 29.0637ZM17.84 27.1229C18.4354 29.1598 19.0246 31.1838 19.6201 33.2079C19.6883 33.163 19.7007 33.1246 19.7131 33.0862C19.9798 31.8372 20.2403 30.5882 20.5257 29.3455C20.5877 29.0893 20.7055 28.8203 20.873 28.6218C22.5787 26.5337 24.2968 24.452 26.0087 22.3703C26.5049 21.7682 27.0011 21.1597 27.4973 20.5576C27.4849 20.5448 27.4725 20.5256 27.4601 20.5128C24.2534 22.7033 21.0529 24.9067 17.84 27.1229ZM20.9226 32.7787C20.9474 32.7851 20.9722 32.798 20.997 32.8044C21.5677 32.2599 22.1321 31.7155 22.7276 31.1454C22.3058 30.8187 21.915 30.5177 21.4808 30.1846C21.2886 31.0878 21.1087 31.9333 20.9226 32.7787Z" fill="white"/>
</svg>
