<svg width="47" height="47" viewBox="0 0 47 47" fill="none" xmlns="http://www.w3.org/2000/svg">
<rect x="0.724609" y="0.747437" width="46.1791" height="46.1791" rx="13.6136" fill="#EA5E45"/>
<g clip-path="url(#clip0)">
<path d="M11.5092 19.3842C11.2905 19.3842 11.0807 19.471 10.9261 19.6257C10.7715 19.7803 10.6846 19.9901 10.6846 20.2088V35.5248C10.6846 35.7435 10.7715 35.9533 10.9261 36.1079C11.0807 36.2626 11.2905 36.3495 11.5092 36.3495H16.8528C17.0715 36.3495 17.2812 36.2626 17.4359 36.1079C17.5905 35.9533 17.6774 35.7435 17.6774 35.5248V20.2088C17.6774 19.9901 17.5905 19.7803 17.4359 19.6257C17.2812 19.471 17.0715 19.3842 16.8528 19.3842H11.5092ZM16.0281 34.7002H12.3338V21.0334H16.0281V34.7002Z" fill="white"/>
<path d="M30.2893 19.3732C28.9302 19.3822 27.5953 19.7339 26.4081 20.3957V20.2088C26.4081 19.9901 26.3212 19.7803 26.1666 19.6257C26.0119 19.471 25.8022 19.3841 25.5835 19.3841H19.976C19.7573 19.3841 19.5475 19.471 19.3929 19.6257C19.2382 19.7803 19.1514 19.9901 19.1514 20.2088V35.5248C19.1514 35.7435 19.2382 35.9533 19.3929 36.1079C19.5475 36.2626 19.7573 36.3495 19.976 36.3495H25.5944C25.8132 36.3495 26.0229 36.2626 26.1775 36.1079C26.3322 35.9533 26.4191 35.7435 26.4191 35.5248V27.5534C26.4191 27.1467 26.5807 26.7565 26.8683 26.4689C27.156 26.1812 27.5461 26.0196 27.9529 26.0196C28.3597 26.0196 28.7498 26.1812 29.0374 26.4689C29.3251 26.7565 29.4867 27.1467 29.4867 27.5534V35.5248C29.4867 35.7435 29.5736 35.9533 29.7282 36.1079C29.8829 36.2626 30.0926 36.3495 30.3113 36.3495H36.2046C36.4233 36.3495 36.6331 36.2626 36.7877 36.1079C36.9424 35.9533 37.0293 35.7435 37.0293 35.5248V27.6854C37.0073 22.5507 34.4454 19.3732 30.2893 19.3732ZM35.369 34.7002H31.1249V27.5534C31.1249 26.7092 30.7896 25.8996 30.1926 25.3027C29.5957 24.7057 28.7861 24.3704 27.9419 24.3704C27.0977 24.3704 26.2881 24.7057 25.6911 25.3027C25.0942 25.8996 24.7588 26.7092 24.7588 27.5534V34.7002H20.8006V21.0334H24.7698V21.957C24.7698 22.1174 24.8166 22.2744 24.9045 22.4087C24.9924 22.5429 25.1175 22.6487 25.2646 22.7128C25.4116 22.777 25.5742 22.7969 25.7324 22.7701C25.8906 22.7432 26.0375 22.6708 26.1552 22.5617C27.3218 21.5925 28.7838 21.0496 30.3003 21.0224C33.5219 21.0224 35.38 23.4523 35.38 27.6854L35.369 34.7002Z" fill="white"/>
<path d="M14.1815 18.4827C14.8887 18.4849 15.5807 18.2772 16.1698 17.8859C16.7589 17.4945 17.2186 16.9372 17.4907 16.2845C17.7629 15.6317 17.8352 14.9129 17.6986 14.219C17.5619 13.5251 17.2225 12.8874 16.7232 12.3865C16.2239 11.8857 15.5872 11.5442 14.8937 11.4055C14.2002 11.2667 13.4812 11.3368 12.8276 11.607C12.174 11.8771 11.6153 12.3351 11.2221 12.923C10.829 13.5108 10.6191 14.2021 10.6191 14.9094C10.6191 15.8552 10.9941 16.7624 11.6619 17.4322C12.3296 18.1021 13.2357 18.4798 14.1815 18.4827ZM14.1815 12.9852C14.5621 12.9852 14.9341 13.0981 15.2505 13.3095C15.5669 13.5209 15.8136 13.8214 15.9592 14.173C16.1048 14.5246 16.1429 14.9115 16.0687 15.2847C15.9944 15.658 15.8112 16.0008 15.5421 16.2699C15.273 16.539 14.9301 16.7223 14.5569 16.7965C14.1837 16.8708 13.7968 16.8327 13.4452 16.687C13.0936 16.5414 12.7931 16.2948 12.5817 15.9784C12.3702 15.6619 12.2574 15.2899 12.2574 14.9094C12.2574 14.3991 12.4601 13.9096 12.821 13.5488C13.1818 13.188 13.6712 12.9852 14.1815 12.9852Z" fill="white"/>
</g>
<defs>
<clipPath id="clip0">
<rect width="26.388" height="26.388" fill="white" transform="translate(10.6191 10.643)"/>
</clipPath>
</defs>
</svg>
