<svg width="47" height="47" viewBox="0 0 47 47" fill="none" xmlns="http://www.w3.org/2000/svg">
<rect x="0.0869141" y="0.715973" width="46.284" height="46.284" rx="13.6129" fill="#EA5E45"/>
<path d="M10.994 31.6322C10.9557 31.8212 10.981 32.0181 11.0658 32.19C11.1506 32.3619 11.2897 32.4984 11.4598 32.5766C14.2747 33.9426 17.3339 34.6818 20.4406 34.7467C23.2242 34.79 25.9588 33.9847 28.3056 32.4305C30.2081 31.1386 31.7734 29.3785 32.862 27.307C33.9507 25.2355 34.5291 22.9167 34.5456 20.5571V20.0512L36.4848 18.6007C36.6074 18.5143 36.705 18.3948 36.7669 18.255C36.8288 18.1152 36.8527 17.9605 36.836 17.8076C36.8192 17.6548 36.7625 17.5096 36.672 17.3877C36.5814 17.2659 36.4605 17.1721 36.3223 17.1165L34.8164 16.4419L35.6614 14.5305C35.7201 14.3821 35.7369 14.2195 35.7097 14.0616C35.6824 13.9037 35.6124 13.7572 35.5078 13.6392C35.4032 13.5211 35.2683 13.4365 35.119 13.3953C34.9697 13.354 34.8121 13.3577 34.6648 13.4061L32.3139 14.2157C31.325 13.4098 30.1046 12.9704 28.8473 12.9676C27.3397 12.9706 25.8948 13.5935 24.8288 14.6998C23.7628 15.8062 23.1626 17.3059 23.1598 18.8706V19.2753C20.2131 19.6351 17.3965 18.0723 14.2981 14.3843C14.198 14.2658 14.0679 14.1788 13.9226 14.1331C13.7773 14.0874 13.6225 14.0849 13.4759 14.1259C13.3292 14.1668 13.1966 14.2497 13.093 14.3649C12.9894 14.4801 12.919 14.6232 12.8898 14.7779C12.4446 16.6897 12.6316 18.7014 13.4206 20.4897L11.9148 20.2873C11.7854 20.2664 11.6531 20.2784 11.5291 20.3221C11.4051 20.3658 11.2931 20.4399 11.2027 20.5382C11.1123 20.6364 11.0461 20.7559 11.0097 20.8865C10.9734 21.017 10.968 21.1548 10.994 21.288C11.1148 22.1991 11.4342 23.0696 11.9279 23.8334C12.4216 24.5971 13.0766 25.234 13.8431 25.6955L13.139 25.9653C13.0373 26.0071 12.9449 26.0698 12.8671 26.1495C12.7893 26.2293 12.7279 26.3245 12.6864 26.4295C12.6449 26.5344 12.6243 26.647 12.6257 26.7605C12.6272 26.8739 12.6507 26.9859 12.6948 27.0897C13.063 27.8646 13.6058 28.5359 14.2772 29.0467C14.9485 29.5576 15.7287 29.8929 16.5515 30.0243C15.0356 30.6348 13.4215 30.9401 11.7956 30.9238C11.6027 30.9239 11.4162 30.9952 11.2693 31.125C11.1224 31.2548 11.0248 31.4345 10.994 31.6322ZM19.5631 30.2379C19.6956 30.1362 19.7952 29.995 19.8486 29.8331C19.902 29.6712 19.9066 29.4963 19.862 29.3316C19.8173 29.1668 19.7254 29.0201 19.5985 28.9109C19.4716 28.8017 19.3157 28.7351 19.1514 28.72C16.8548 28.5289 15.5006 28.2366 14.634 27.1797L16.6598 26.4151C16.8318 26.3502 16.9778 26.227 17.0739 26.0653C17.17 25.9036 17.2107 25.713 17.1894 25.5243C17.1681 25.3356 17.086 25.1599 16.9564 25.0257C16.8269 24.8914 16.6575 24.8065 16.4756 24.7848C15.7007 24.7539 14.9512 24.4899 14.3184 24.0247C13.6855 23.5595 13.1967 22.9134 12.9115 22.165L15.2298 22.5248C15.4024 22.551 15.5787 22.5189 15.7324 22.4332C15.8861 22.3474 16.0091 22.2126 16.0832 22.0486C16.1573 21.8847 16.1786 21.7003 16.1439 21.5228C16.1092 21.3453 16.0204 21.1841 15.8906 21.0631C15.3327 20.5355 14.8989 19.882 14.6228 19.1529C14.3467 18.4238 14.2356 17.6386 14.2981 16.8579C17.5481 20.2311 20.7981 21.5466 24.1456 20.827C24.3282 20.7883 24.4925 20.6856 24.6108 20.5362C24.7292 20.3867 24.7944 20.1996 24.7956 20.0062V18.8818C24.7917 18.0635 25.0185 17.2619 25.4481 16.5758C25.8777 15.8897 26.4913 15.349 27.2133 15.0203C27.9354 14.6916 28.7343 14.5893 29.5116 14.7261C30.2889 14.8628 31.0107 15.2326 31.5881 15.7898C31.6954 15.8929 31.8275 15.964 31.9705 15.9957C32.1135 16.0273 32.2621 16.0184 32.4006 15.9697L33.4081 15.6211L32.9964 16.5544C32.9532 16.6592 32.9309 16.772 32.9309 16.8861C32.9309 17.0001 32.9532 17.1129 32.9964 17.2177C33.0939 17.4763 33.1156 17.5326 34.3831 18.106L33.2998 18.938C33.1954 19.0165 33.1105 19.1196 33.0521 19.2389C32.9937 19.3582 32.9635 19.4901 32.9639 19.6239V20.5571C32.9498 22.6349 32.441 24.6768 31.4827 26.5012C30.5244 28.3256 29.1465 29.8757 27.4714 31.0138C24.2214 33.2625 19.9423 33.6335 15.3165 32.2393C16.8442 31.866 18.2868 31.1861 19.5631 30.2379Z" fill="white"/>
</svg>
