<svg width="47" height="47" viewBox="0 0 47 47" fill="none" xmlns="http://www.w3.org/2000/svg">
<rect x="0.461914" y="0.715973" width="46.284" height="46.284" rx="13.6129" fill="#EA5E45"/>
<path d="M31.8393 13.8298H15.0058C13.8082 13.8298 12.6596 14.3306 11.8128 15.2219C10.966 16.1133 10.4902 17.3223 10.4902 18.583L10.4902 28.9288C10.4902 30.1894 10.966 31.3984 11.8128 32.2898C12.6596 33.1812 13.8082 33.682 15.0058 33.682H31.8393C32.4323 33.682 33.0195 33.559 33.5673 33.3202C34.1152 33.0813 34.613 32.7312 35.0323 32.2898C35.4516 31.8484 35.7842 31.3244 36.0111 30.7478C36.238 30.1711 36.3548 29.553 36.3548 28.9288V18.583C36.3548 17.9588 36.238 17.3407 36.0111 16.764C35.7842 16.1873 35.4516 15.6633 35.0323 15.2219C34.613 14.7806 34.1152 14.4305 33.5673 14.1916C33.0195 13.9527 32.4323 13.8298 31.8393 13.8298ZM34.7383 28.9288C34.7383 29.3295 34.6633 29.7264 34.5176 30.0966C34.3719 30.4668 34.1584 30.8032 33.8892 31.0866C33.62 31.3699 33.3004 31.5947 32.9487 31.7481C32.597 31.9014 32.22 31.9804 31.8393 31.9804H15.0058C14.2369 31.9804 13.4995 31.6589 12.9559 31.0866C12.4122 30.5143 12.1068 29.7381 12.1068 28.9288V18.583C12.1068 17.7736 12.4122 16.9975 12.9559 16.4252C13.4995 15.8529 14.2369 15.5314 15.0058 15.5314H31.8393C32.22 15.5314 32.597 15.6103 32.9487 15.7637C33.3004 15.917 33.62 16.1418 33.8892 16.4252C34.1584 16.7085 34.3719 17.0449 34.5176 17.4152C34.6633 17.7854 34.7383 18.1822 34.7383 18.583V28.9288Z" fill="white"/>
<path d="M21.1583 17.6868C21.0364 17.6059 20.8961 17.5608 20.752 17.5561C20.6079 17.5515 20.4653 17.5874 20.3389 17.6603C20.2124 17.7332 20.1068 17.8404 20.033 17.9707C19.9592 18.101 19.9198 18.2498 19.9189 18.4015V28.2255C19.9198 28.3772 19.9592 28.526 20.033 28.6563C20.1068 28.7866 20.2124 28.8938 20.3389 28.9667C20.4653 29.0396 20.6079 29.0756 20.752 29.0709C20.8961 29.0663 21.0364 29.0211 21.1583 28.9402L28.4543 24.0282C28.5677 23.9511 28.661 23.8452 28.7256 23.7204C28.7901 23.5956 28.824 23.4557 28.824 23.3135C28.824 23.1714 28.7901 23.0315 28.7256 22.9066C28.661 22.7818 28.5677 22.676 28.4543 22.5988L21.1583 17.6868ZM21.5355 26.6714V19.9556L26.5252 23.3589L21.5355 26.6714Z" fill="white"/>
</svg>
