<svg width="37" height="36" viewBox="0 0 37 36" fill="none" xmlns="http://www.w3.org/2000/svg">
<g filter="url(#filter0_d)">
<path fill-rule="evenodd" clip-rule="evenodd" d="M17.0652 30.8451L7.50001 30.8451C6.57553 30.8451 5.82609 30.1388 5.82609 29.2676L5.82609 27.9155C5.82609 27.0443 6.57553 26.338 7.50001 26.338L17.0652 26.3381C17.9897 26.3381 18.7391 27.0443 18.7391 27.9155L18.7391 29.2676C18.7391 30.1388 17.9897 30.8451 17.0652 30.8451Z" fill="#FF6746"/>
<path fill-rule="evenodd" clip-rule="evenodd" d="M23.2826 20.4789L7.97825 20.4789C7.05377 20.4789 6.30433 19.7726 6.30433 18.9014L6.30433 17.5493C6.30434 16.6781 7.05377 15.9718 7.97825 15.9718L23.2826 15.9718C24.2071 15.9718 24.9565 16.6781 24.9565 17.5493L24.9565 18.9014C24.9565 19.7726 24.2071 20.4789 23.2826 20.4789Z" fill="#FF6746"/>
<path fill-rule="evenodd" clip-rule="evenodd" d="M29.9782 10.1127L7.97824 10.1127C7.05376 10.1127 6.30433 9.40641 6.30433 8.5352L6.30433 7.18309C6.30433 6.31188 7.05376 5.60562 7.97824 5.60562L29.9782 5.60563C30.9027 5.60563 31.6522 6.31188 31.6522 7.18309L31.6522 8.5352C31.6522 9.40642 30.9027 10.1127 29.9782 10.1127Z" fill="#FF6746"/>
</g>
<defs>
<filter id="filter0_d" x="-3" y="-3" width="43" height="42" filterUnits="userSpaceOnUse" color-interpolation-filters="sRGB">
<feFlood flood-opacity="0" result="BackgroundImageFix"/>
<feColorMatrix in="SourceAlpha" type="matrix" values="0 0 0 0 0 0 0 0 0 0 0 0 0 0 0 0 0 0 127 0"/>
<feMorphology radius="1" operator="dilate" in="SourceAlpha" result="effect1_dropShadow"/>
<feOffset/>
<feGaussianBlur stdDeviation="2"/>
<feColorMatrix type="matrix" values="0 0 0 0 1 0 0 0 0 0.403922 0 0 0 0 0.27451 0 0 0 1 0"/>
<feBlend mode="normal" in2="BackgroundImageFix" result="effect1_dropShadow"/>
<feBlend mode="normal" in="SourceGraphic" in2="effect1_dropShadow" result="shape"/>
</filter>
</defs>
</svg>
