<svg width="149" height="192" viewBox="0 0 149 192" fill="none" xmlns="http://www.w3.org/2000/svg">
<g clip-path="url(#clip0)">
<rect x="8" y="9" width="133" height="132" rx="5" fill="white"/>
<path d="M53.6213 23.3545V21.1586C53.6213 20.699 53.2627 20.3416 52.8015 20.3416H50.6496C50.1885 20.3416 49.8298 20.699 49.8298 21.1586V24.1205H53.6213V23.3545Z" fill="#1A4A73"/>
<path d="M58.2324 20.3926H60.4355C60.8967 20.3926 61.2553 20.7501 61.2553 21.2097V23.4056C61.2553 23.8652 60.8967 24.2226 60.4355 24.2226H58.2324C57.7713 24.2226 57.4126 23.8652 57.4126 23.4056V21.2097C57.4638 20.7501 57.8225 20.3926 58.2324 20.3926Z" fill="#1A4A73"/>
<path d="M65.8154 20.3926C65.3543 20.3926 64.9956 20.7501 64.9956 21.2097V24.1716H68.7871V20.3926H65.8154Z" fill="#1A4A73"/>
<path d="M69.6069 24.1716H71.8101C72.2712 24.1716 72.6298 23.8141 72.6298 23.3545V21.1586C72.6298 20.699 72.2712 20.3416 71.8101 20.3416H68.8384V24.1205H69.6069V24.1716Z" fill="#1A4A73"/>
<path d="M90.7676 20.3926H88.5644C88.1033 20.3926 87.7446 20.7501 87.7446 21.2097V23.4056C87.7446 23.8652 88.1033 24.2226 88.5644 24.2226H91.5361V20.4436H90.7676V20.3926Z" fill="#1A4A73"/>
<path d="M92.407 24.1716H94.6101C95.0712 24.1716 95.4299 23.8141 95.4299 23.3545V21.1586C95.4299 20.699 95.0712 20.3416 94.6101 20.3416H91.6384V24.1205H92.407V24.1716Z" fill="#1A4A73"/>
<path d="M53.6213 24.1716H49.8298V27.9506H53.6213V24.1716Z" fill="#1A4A73"/>
<path d="M54.4411 27.9506C53.98 27.9506 53.6213 27.5932 53.6213 27.1335V27.9506H54.4411Z" fill="#1A4A73"/>
<path d="M65.0469 27.1335C65.0469 27.5932 65.4055 27.9506 65.8667 27.9506H68.0698C68.5309 27.9506 68.8896 27.5932 68.8896 27.1335V24.1716H65.0981V27.1335H65.0469Z" fill="#1A4A73"/>
<path d="M69.6069 24.1716H68.7871V24.9887C68.8383 24.5291 69.197 24.1716 69.6069 24.1716Z" fill="#1A4A73"/>
<path d="M75.6015 24.1716H73.3984C72.9373 24.1716 72.5786 24.5291 72.5786 24.9887V27.1846C72.5786 27.6442 72.9373 28.0017 73.3984 28.0017H76.3701V24.2227H75.6015V24.1716Z" fill="#1A4A73"/>
<path d="M80.2128 24.1716H76.4214V27.9506H80.2128V24.1716Z" fill="#1A4A73"/>
<path d="M84.0044 24.1716H80.2129V27.9506H84.0044V24.1716Z" fill="#1A4A73"/>
<path d="M84.8242 27.9507H87.0274C87.4885 27.9507 87.8472 27.5932 87.8472 27.1336V24.9377C87.8472 24.4781 87.4885 24.1206 87.0274 24.1206H84.0557V27.8996H84.8242V27.9507Z" fill="#1A4A73"/>
<path d="M96.1984 24.1716H98.4016C98.8627 24.1716 99.2214 24.5291 99.2214 24.9887V27.1846C99.2214 27.6442 98.8627 28.0017 98.4016 28.0017H96.1984C95.7373 28.0017 95.3787 27.6442 95.3787 27.1846V24.9887C95.3787 24.5291 95.7373 24.1716 96.1984 24.1716Z" fill="#1A4A73"/>
<path d="M49.8298 30.9126C49.8298 31.3722 50.1885 31.7297 50.6496 31.7297H53.6213V27.9507H49.8298V30.9126Z" fill="#1A4A73"/>
<path d="M54.4411 31.7297H56.6443C57.1054 31.7297 57.4641 31.3723 57.4641 30.9126V28.7167C57.4641 28.2571 57.1054 27.8997 56.6443 27.8997H53.6726V31.6787H54.4411V31.7297Z" fill="#1A4A73"/>
<path d="M72.6298 30.9126V28.7167C72.6298 28.2571 72.2712 27.8997 71.81 27.8997H69.6069C69.1458 27.8997 68.7871 28.2571 68.7871 28.7167V31.6787H72.5786V30.9126H72.6298Z" fill="#1A4A73"/>
<path d="M73.4497 31.7297C72.9885 31.7297 72.6299 31.3722 72.6299 30.9126V31.7297H73.4497Z" fill="#1A4A73"/>
<path d="M92.4069 27.9507H94.6101C95.0712 27.9507 95.4299 28.3082 95.4299 28.7678V30.9637C95.4299 31.4233 95.0712 31.7807 94.6101 31.7807H92.4069C91.9458 31.7807 91.5872 31.4233 91.5872 30.9637V28.7678C91.5872 28.3082 91.9458 27.9507 92.4069 27.9507Z" fill="#1A4A73"/>
<path d="M56.6443 35.5085C57.1054 35.5085 57.4641 35.151 57.4641 34.6914V35.5085H56.6443Z" fill="#1A4A73"/>
<path d="M58.2324 31.7297C57.7713 31.7297 57.4126 32.0872 57.4126 32.5468V35.5087H61.2041V31.7297H58.2324Z" fill="#1A4A73"/>
<path d="M62.0239 35.5088H64.2271C64.6882 35.5088 65.0468 35.1513 65.0468 34.6917V32.4958C65.0468 32.0362 64.6882 31.6787 64.2271 31.6787H61.2554V35.4577H62.0239V35.5088Z" fill="#1A4A73"/>
<path d="M68.8384 34.6917C68.8384 35.1513 69.197 35.5087 69.6582 35.5087H72.6298V31.7297H68.8384V34.6917Z" fill="#1A4A73"/>
<path d="M73.4497 35.5088H75.6528C76.114 35.5088 76.4726 35.1513 76.4726 34.6917V32.4958C76.4726 32.0362 76.114 31.6787 75.6528 31.6787H72.6812V35.4577H73.4497V35.5088Z" fill="#1A4A73"/>
<path d="M86.9761 31.7297H84.7729C84.3118 31.7297 83.9531 32.0872 83.9531 32.5468V34.7427C83.9531 35.2023 84.3118 35.5598 84.7729 35.5598H87.7446V31.7808H86.9761V31.7297Z" fill="#1A4A73"/>
<path d="M90.7676 31.7297C91.2287 31.7297 91.5874 32.0872 91.5874 32.5468V35.5087H87.7959V31.7297H90.7676Z" fill="#1A4A73"/>
<path d="M96.1984 31.7297H98.4016C98.8627 31.7297 99.2214 32.0872 99.2214 32.5468V34.7427C99.2214 35.2023 98.8627 35.5598 98.4016 35.5598H96.1984C95.7373 35.5598 95.3787 35.2023 95.3787 34.7427V32.5468C95.3787 32.0872 95.7373 31.7297 96.1984 31.7297Z" fill="#1A4A73"/>
<path d="M56.6443 35.5088H54.4411C53.98 35.5088 53.6213 35.8663 53.6213 36.3259V38.5218C53.6213 38.9814 53.98 39.3388 54.4411 39.3388H57.4128V35.5599H56.6443V35.5088Z" fill="#1A4A73"/>
<path d="M61.2553 38.4707C61.2553 38.9303 60.8967 39.2878 60.4356 39.2878H57.4639V35.5088H61.2553V38.4707Z" fill="#1A4A73"/>
<path d="M62.0239 35.5088H61.2041V36.3259C61.2553 35.8663 61.614 35.5088 62.0239 35.5088Z" fill="#1A4A73"/>
<path d="M68.8383 38.4705V36.2746C68.8383 35.815 68.4797 35.4575 68.0185 35.4575H65.8154C65.3543 35.4575 64.9956 35.815 64.9956 36.2746V39.2365H68.7871V38.4705H68.8383Z" fill="#1A4A73"/>
<path d="M87.7959 36.3259V35.5088H86.9761C87.4372 35.5088 87.7959 35.8663 87.7959 36.3259Z" fill="#1A4A73"/>
<path d="M91.5874 35.5088H87.7959V39.2878H91.5874V35.5088Z" fill="#1A4A73"/>
<path d="M53.6213 42.3006V40.1047C53.6213 39.6451 53.2627 39.2876 52.8015 39.2876H50.6496C50.1885 39.2876 49.8298 39.6451 49.8298 40.1047V43.0666H53.6213V42.3006Z" fill="#1A4A73"/>
<path d="M68.8383 39.2876H65.0469V43.0666H68.8383V39.2876Z" fill="#1A4A73"/>
<path d="M77.2412 39.2876H79.4443C79.9054 39.2876 80.2641 39.6451 80.2641 40.1047V42.3006C80.2641 42.7602 79.9054 43.1177 79.4443 43.1177H77.2412C76.78 43.1177 76.4214 42.7602 76.4214 42.3006V40.1047C76.4214 39.6451 76.78 39.2876 77.2412 39.2876Z" fill="#1A4A73"/>
<path d="M91.5874 39.2876H87.7959V43.0666H91.5874V39.2876Z" fill="#1A4A73"/>
<path d="M99.1701 42.3006V40.1047C99.1701 39.6451 98.8115 39.2876 98.3503 39.2876H96.1472C95.686 39.2876 95.3274 39.6451 95.3274 40.1047V43.0666H99.1189V42.3006H99.1701Z" fill="#1A4A73"/>
<path d="M53.6213 43.0667H49.8298V46.8456H53.6213V43.0667Z" fill="#1A4A73"/>
<path d="M61.2553 46.0796V43.8837C61.2553 43.4241 60.8967 43.0667 60.4355 43.0667H58.2324C57.7713 43.0667 57.4126 43.4241 57.4126 43.8837V46.8456H61.2041V46.0796H61.2553Z" fill="#1A4A73"/>
<path d="M65.0469 46.0796C65.0469 46.5392 65.4055 46.8967 65.8667 46.8967H68.0698C68.5309 46.8967 68.8896 46.5392 68.8896 46.0796V43.1177H65.0981V46.0796H65.0469Z" fill="#1A4A73"/>
<path d="M71.8101 46.8456C72.2712 46.8456 72.6298 46.4882 72.6298 46.0286V46.8456H71.8101Z" fill="#1A4A73"/>
<path d="M76.4213 46.0796V43.8837C76.4213 43.4241 76.0627 43.0667 75.6015 43.0667H73.3984C72.9373 43.0667 72.5786 43.4241 72.5786 43.8837V46.8456H76.3701V46.0796H76.4213Z" fill="#1A4A73"/>
<path d="M79.3931 46.8456C79.8542 46.8456 80.2128 46.4882 80.2128 46.0286V46.8456H79.3931Z" fill="#1A4A73"/>
<path d="M77.2411 46.8456C76.78 46.8456 76.4214 46.4882 76.4214 46.0286V46.8456H77.2411Z" fill="#1A4A73"/>
<path d="M84.0043 46.0796V43.8837C84.0043 43.4241 83.6457 43.0667 83.1846 43.0667H80.9814C80.5203 43.0667 80.1616 43.4241 80.1616 43.8837V46.8456H83.9531V46.0796H84.0043Z" fill="#1A4A73"/>
<path d="M91.5874 43.0667H87.7959V46.8456H91.5874V43.0667Z" fill="#1A4A73"/>
<path d="M94.6101 46.8456C95.0712 46.8456 95.4299 46.4882 95.4299 46.0286V46.8456H94.6101Z" fill="#1A4A73"/>
<path d="M92.4069 46.8456C91.9458 46.8456 91.5872 46.4882 91.5872 46.0286V46.8456H92.4069Z" fill="#1A4A73"/>
<path d="M99.1701 43.0667H95.3787V46.8456H99.1701V43.0667Z" fill="#1A4A73"/>
<path d="M53.6213 46.8457H49.8298V50.6247H53.6213V46.8457Z" fill="#1A4A73"/>
<path d="M56.6443 50.6247C57.1054 50.6247 57.4641 50.2672 57.4641 49.8076V50.6247H56.6443Z" fill="#1A4A73"/>
<path d="M54.4411 50.6247C53.98 50.6247 53.6213 50.2672 53.6213 49.8076V50.6247H54.4411Z" fill="#1A4A73"/>
<path d="M61.2553 46.8457H57.4639V50.6247H61.2553V46.8457Z" fill="#1A4A73"/>
<path d="M62.0239 50.6247C61.5628 50.6247 61.2041 50.2672 61.2041 49.8076V50.6247H62.0239Z" fill="#1A4A73"/>
<path d="M71.81 46.8457H69.6069C69.1458 46.8457 68.7871 47.2032 68.7871 47.6628V49.8587C68.7871 50.3183 69.1458 50.6758 69.6069 50.6758H72.5786V46.8968H71.81V46.8457Z" fill="#1A4A73"/>
<path d="M76.4214 46.8457H72.6299V50.6247H76.4214V46.8457Z" fill="#1A4A73"/>
<path d="M80.2128 46.8457H76.4214V50.6247H80.2128V46.8457Z" fill="#1A4A73"/>
<path d="M84.0044 49.8586C84.0044 50.3183 83.6457 50.6757 83.1846 50.6757H80.2129V46.8967H84.0044V49.8586Z" fill="#1A4A73"/>
<path d="M91.5874 46.8457H87.7959V50.6247H91.5874V46.8457Z" fill="#1A4A73"/>
<path d="M95.3786 46.8457H91.5872V50.6247H95.3786V46.8457Z" fill="#1A4A73"/>
<path d="M99.1701 46.8457H95.3787V50.6247H99.1701V46.8457Z" fill="#1A4A73"/>
<path d="M99.9899 50.6247C99.5288 50.6247 99.1702 50.2672 99.1702 49.8076V50.6247H99.9899Z" fill="#1A4A73"/>
<path d="M26.2612 54.4035C26.7224 54.4035 27.081 54.046 27.081 53.5864V54.4035H26.2612Z" fill="#1A4A73"/>
<path d="M27.9008 50.6245C27.4397 50.6245 27.0811 50.982 27.0811 51.4416V54.4035H30.8725V50.6245H27.9008Z" fill="#1A4A73"/>
<path d="M34.664 50.6245H30.8726V54.4035H34.664V50.6245Z" fill="#1A4A73"/>
<path d="M37.6358 50.6245C38.0969 50.6245 38.4555 50.982 38.4555 51.4416V54.4035H34.6641V50.6245H37.6358Z" fill="#1A4A73"/>
<path d="M39.2751 54.4035C38.814 54.4035 38.4553 54.046 38.4553 53.5864V54.4035H39.2751Z" fill="#1A4A73"/>
<path d="M43.0666 50.6245H45.2698C45.7309 50.6245 46.0895 50.982 46.0895 51.4416V53.6375C46.0895 54.0971 45.7309 54.4546 45.2698 54.4546H43.0666C42.6055 54.4546 42.2468 54.0971 42.2468 53.6375V51.4416C42.2468 50.982 42.6055 50.6245 43.0666 50.6245Z" fill="#1A4A73"/>
<path d="M49.0613 54.4035C49.5224 54.4035 49.8811 54.046 49.8811 53.5864V54.4035H49.0613Z" fill="#1A4A73"/>
<path d="M53.6213 50.6245H49.8298V54.4035H53.6213V50.6245Z" fill="#1A4A73"/>
<path d="M57.4128 50.6245H53.6213V54.4035H57.4128V50.6245Z" fill="#1A4A73"/>
<path d="M61.2553 50.6245H57.4639V54.4035H61.2553V50.6245Z" fill="#1A4A73"/>
<path d="M65.0468 50.6245H61.2554V54.4035H65.0468V50.6245Z" fill="#1A4A73"/>
<path d="M65.8154 54.4035H68.0186C68.4797 54.4035 68.8383 54.0461 68.8383 53.5865V51.3906C68.8383 50.931 68.4797 50.5735 68.0186 50.5735H65.0469V54.3525H65.8154V54.4035Z" fill="#1A4A73"/>
<path d="M87.7959 53.6377C87.7959 54.0973 88.1546 54.4548 88.6157 54.4548H90.8188C91.28 54.4548 91.6386 54.0973 91.6386 53.6377V50.6758H87.8471V53.6377H87.7959Z" fill="#1A4A73"/>
<path d="M92.4069 50.6245H91.5872V51.4416C91.5872 50.982 91.9458 50.6245 92.4069 50.6245Z" fill="#1A4A73"/>
<path d="M95.3789 51.4416V50.6245H94.5591C95.0202 50.6245 95.3789 50.982 95.3789 51.4416Z" fill="#1A4A73"/>
<path d="M95.3787 53.6377C95.3787 54.0973 95.7373 54.4548 96.1984 54.4548H99.1701V50.6758H95.3787V53.6377Z" fill="#1A4A73"/>
<path d="M102.962 50.6245H99.1702V54.4035H102.962V50.6245Z" fill="#1A4A73"/>
<path d="M106.753 50.6245H102.962V54.4035H106.753V50.6245Z" fill="#1A4A73"/>
<path d="M107.573 54.4035H109.776C110.237 54.4035 110.596 54.0461 110.596 53.5865V51.3906C110.596 50.931 110.237 50.5735 109.776 50.5735H106.804V54.3525H107.573V54.4035Z" fill="#1A4A73"/>
<path d="M121.15 50.6245H118.947C118.486 50.6245 118.127 50.982 118.127 51.4416V53.6375C118.127 54.0971 118.486 54.4546 118.947 54.4546H121.919V50.6756H121.15V50.6245Z" fill="#1A4A73"/>
<path d="M125.762 50.6245H121.97V54.4035H125.762V50.6245Z" fill="#1A4A73"/>
<path d="M128.733 50.6245C129.195 50.6245 129.553 50.982 129.553 51.4416V54.4035H125.762V50.6245H128.733Z" fill="#1A4A73"/>
<path d="M22.4697 54.4036H20.2666C19.8054 54.4036 19.4468 54.761 19.4468 55.2207V57.4166C19.4468 57.8762 19.8054 58.2336 20.2666 58.2336H23.2383V54.4546H22.4697V54.4036Z" fill="#1A4A73"/>
<path d="M27.081 54.4036H23.2896V58.1826H27.081V54.4036Z" fill="#1A4A73"/>
<path d="M30.8725 54.4036H27.0811V58.1826H30.8725V54.4036Z" fill="#1A4A73"/>
<path d="M34.664 54.4036H30.8726V58.1826H34.664V54.4036Z" fill="#1A4A73"/>
<path d="M38.4555 54.4036H34.6641V58.1826H38.4555V54.4036Z" fill="#1A4A73"/>
<path d="M41.4783 54.4036C41.9394 54.4036 42.2981 54.761 42.2981 55.2206V58.1826H38.5066V54.4036H41.4783Z" fill="#1A4A73"/>
<path d="M45.2698 58.2336C45.7309 58.2336 46.0896 57.8761 46.0896 57.4165V58.2336H45.2698Z" fill="#1A4A73"/>
<path d="M43.0666 58.2336C42.6055 58.2336 42.2468 57.8761 42.2468 57.4165V58.2336H43.0666Z" fill="#1A4A73"/>
<path d="M46.8581 54.4036C46.397 54.4036 46.0383 54.761 46.0383 55.2206V58.1826H49.8298V54.4036H46.8581Z" fill="#1A4A73"/>
<path d="M53.6213 57.4165C53.6213 57.8761 53.2627 58.2336 52.8015 58.2336H49.8298V54.4546H53.6213V57.4165Z" fill="#1A4A73"/>
<path d="M54.4411 54.4036H53.6213V55.2206C53.6213 54.8121 54.0312 54.4036 54.4411 54.4036Z" fill="#1A4A73"/>
<path d="M99.1704 55.2206V54.4036H98.3506C98.8117 54.4036 99.1704 54.8121 99.1704 55.2206Z" fill="#1A4A73"/>
<path d="M99.1702 57.4165C99.1702 57.8761 99.5288 58.2336 99.9899 58.2336H102.962V54.4546H99.1702V57.4165Z" fill="#1A4A73"/>
<path d="M106.753 57.4165C106.753 57.8761 106.394 58.2336 105.933 58.2336H102.962V54.4546H106.753V57.4165Z" fill="#1A4A73"/>
<path d="M107.573 54.4036H106.753V55.2206C106.753 54.8121 107.163 54.4036 107.573 54.4036Z" fill="#1A4A73"/>
<path d="M111.364 54.4036H113.567C114.028 54.4036 114.387 54.761 114.387 55.2207V57.4166C114.387 57.8762 114.028 58.2336 113.567 58.2336H111.364C110.903 58.2336 110.544 57.8762 110.544 57.4166V55.2207C110.596 54.8121 110.954 54.4036 111.364 54.4036Z" fill="#1A4A73"/>
<path d="M121.97 55.2206V54.4036H121.15C121.612 54.4036 121.97 54.8121 121.97 55.2206Z" fill="#1A4A73"/>
<path d="M121.97 57.4165C121.97 57.8761 122.329 58.2336 122.79 58.2336H125.762V54.4546H121.97V57.4165Z" fill="#1A4A73"/>
<path d="M129.553 57.4165C129.553 57.8761 129.195 58.2336 128.733 58.2336H125.762V54.4546H129.553V57.4165Z" fill="#1A4A73"/>
<path d="M23.2895 58.9997V58.1826H22.4697C22.9309 58.2337 23.2895 58.5912 23.2895 58.9997Z" fill="#1A4A73"/>
<path d="M23.2896 61.1956C23.2896 61.6552 23.6482 62.0126 24.1093 62.0126H27.081V58.2336H23.2896V61.1956Z" fill="#1A4A73"/>
<path d="M30.8725 58.2336H27.0811V62.0126H30.8725V58.2336Z" fill="#1A4A73"/>
<path d="M34.664 58.2336H30.8726V62.0126H34.664V58.2336Z" fill="#1A4A73"/>
<path d="M38.4555 58.2336H34.6641V62.0126H38.4555V58.2336Z" fill="#1A4A73"/>
<path d="M42.2468 58.2336H38.4553V62.0126H42.2468V58.2336Z" fill="#1A4A73"/>
<path d="M46.0383 58.2336H42.2468V62.0126H46.0383V58.2336Z" fill="#1A4A73"/>
<path d="M49.8298 61.1956C49.8298 61.6552 49.4711 62.0126 49.01 62.0126H46.0383V58.2336H49.8298V61.1956Z" fill="#1A4A73"/>
<path d="M50.6496 58.2336H49.8298V59.0507C49.8298 58.5911 50.1885 58.2336 50.6496 58.2336Z" fill="#1A4A73"/>
<path d="M99.1701 61.1956V58.9997C99.1701 58.5401 98.8115 58.1826 98.3503 58.1826H96.1472C95.686 58.1826 95.3274 58.5401 95.3274 58.9997V61.9616H99.1189V61.1956H99.1701Z" fill="#1A4A73"/>
<path d="M117.359 62.0126C117.82 62.0126 118.179 61.6552 118.179 61.1956V62.0126H117.359Z" fill="#1A4A73"/>
<path d="M121.97 61.1956V58.9997C121.97 58.5401 121.612 58.1826 121.15 58.1826H118.947C118.486 58.1826 118.127 58.5401 118.127 58.9997V61.9616H121.919V61.1956H121.97Z" fill="#1A4A73"/>
<path d="M27.081 62.7787V61.9617H26.2612C26.7224 62.0127 27.081 62.3702 27.081 62.7787Z" fill="#1A4A73"/>
<path d="M26.2612 65.7917C26.7224 65.7917 27.081 65.4342 27.081 64.9746V65.7917H26.2612Z" fill="#1A4A73"/>
<path d="M30.8725 62.0127H27.0811V65.7917H30.8725V62.0127Z" fill="#1A4A73"/>
<path d="M34.664 62.0127H30.8726V65.7917H34.664V62.0127Z" fill="#1A4A73"/>
<path d="M38.4555 62.0127H34.6641V65.7917H38.4555V62.0127Z" fill="#1A4A73"/>
<path d="M42.2468 62.0127H38.4553V65.7917H42.2468V62.0127Z" fill="#1A4A73"/>
<path d="M43.0666 62.0127H42.2468V62.8298C42.2468 62.3702 42.6055 62.0127 43.0666 62.0127Z" fill="#1A4A73"/>
<path d="M43.0666 65.7917C42.6055 65.7917 42.2468 65.4342 42.2468 64.9746V65.7917H43.0666Z" fill="#1A4A73"/>
<path d="M50.6496 62.0127H52.8528C53.3139 62.0127 53.6725 62.3702 53.6725 62.8298V65.0257C53.6725 65.4853 53.3139 65.8428 52.8528 65.8428H50.6496C50.1885 65.8428 49.8298 65.4853 49.8298 65.0257V62.8298C49.8298 62.3702 50.1885 62.0127 50.6496 62.0127Z" fill="#1A4A73"/>
<path d="M99.1701 62.0127H95.3787V65.7917H99.1701V62.0127Z" fill="#1A4A73"/>
<path d="M99.9899 65.7917C99.5288 65.7917 99.1702 65.4342 99.1702 64.9746V65.7917H99.9899Z" fill="#1A4A73"/>
<path d="M105.985 62.0127H103.781C103.32 62.0127 102.962 62.3702 102.962 62.8298V65.0257C102.962 65.4853 103.32 65.8428 103.781 65.8428H106.753V62.0638H105.985V62.0127Z" fill="#1A4A73"/>
<path d="M110.545 62.0127H106.753V65.7917H110.545V62.0127Z" fill="#1A4A73"/>
<path d="M114.387 62.0127H110.596V65.7917H114.387V62.0127Z" fill="#1A4A73"/>
<path d="M118.179 62.0127H114.387V65.7917H118.179V62.0127Z" fill="#1A4A73"/>
<path d="M121.97 62.0127H118.179V65.7917H121.97V62.0127Z" fill="#1A4A73"/>
<path d="M122.739 65.7917C122.278 65.7917 121.919 65.4342 121.919 64.9746V65.7917H122.739Z" fill="#1A4A73"/>
<path d="M20.3178 65.7917C19.8567 65.7917 19.498 66.1492 19.498 66.6088V69.5707H23.2895V65.7917H20.3178Z" fill="#1A4A73"/>
<path d="M27.081 65.7917H23.2896V69.5707H27.081V65.7917Z" fill="#1A4A73"/>
<path d="M30.8725 68.7537C30.8725 69.2133 30.5139 69.5707 30.0527 69.5707H27.0811V65.7917H30.8725V68.7537Z" fill="#1A4A73"/>
<path d="M31.6923 65.7917H30.8726V66.6088C30.8726 66.1492 31.2312 65.7917 31.6923 65.7917Z" fill="#1A4A73"/>
<path d="M38.4555 66.5578V65.7917H37.6357C38.0969 65.7917 38.4555 66.1492 38.4555 66.5578Z" fill="#1A4A73"/>
<path d="M38.4553 68.7537C38.4553 69.2133 38.814 69.5707 39.2751 69.5707H42.2468V65.7917H38.4553V68.7537Z" fill="#1A4A73"/>
<path d="M43.0666 69.5708H45.2698C45.7309 69.5708 46.0896 69.2133 46.0896 68.7537V66.5578C46.0896 66.0982 45.7309 65.7407 45.2698 65.7407H42.2981V69.5197H43.0666V69.5708Z" fill="#1A4A73"/>
<path d="M99.1701 65.7917H95.3787V69.5707H99.1701V65.7917Z" fill="#1A4A73"/>
<path d="M99.99 69.5708H102.193C102.654 69.5708 103.013 69.2133 103.013 68.7537V66.5578C103.013 66.0982 102.654 65.7407 102.193 65.7407H99.2214V69.5197H99.99V69.5708Z" fill="#1A4A73"/>
<path d="M110.596 66.5578V65.7917H109.776C110.186 65.7917 110.596 66.1492 110.596 66.5578Z" fill="#1A4A73"/>
<path d="M114.387 65.7917H110.596V69.5707H114.387V65.7917Z" fill="#1A4A73"/>
<path d="M115.156 65.7917H114.336V66.6088C114.387 66.1492 114.746 65.7917 115.156 65.7917Z" fill="#1A4A73"/>
<path d="M118.179 66.5578V65.7917H117.359C117.82 65.7917 118.179 66.1492 118.179 66.5578Z" fill="#1A4A73"/>
<path d="M115.156 69.5707C114.695 69.5707 114.336 69.2133 114.336 68.7537V69.5707H115.156Z" fill="#1A4A73"/>
<path d="M118.179 68.7537C118.179 69.2133 118.537 69.5707 118.998 69.5707H121.97V65.7917H118.179V68.7537Z" fill="#1A4A73"/>
<path d="M122.739 69.5708H124.942C125.403 69.5708 125.762 69.2133 125.762 68.7537V66.5578C125.762 66.0982 125.403 65.7407 124.942 65.7407H121.97V69.5197H122.739V69.5708Z" fill="#1A4A73"/>
<path d="M19.498 72.5327C19.498 72.9923 19.8567 73.3498 20.3178 73.3498H22.4697C22.9309 73.3498 23.2895 72.9923 23.2895 72.5327V69.5708H19.498V72.5327Z" fill="#1A4A73"/>
<path d="M24.1093 69.5708H23.2896V70.3879C23.2896 69.9283 23.6482 69.5708 24.1093 69.5708Z" fill="#1A4A73"/>
<path d="M45.2698 73.3498C45.7309 73.3498 46.0896 72.9923 46.0896 72.5327V73.3498H45.2698Z" fill="#1A4A73"/>
<path d="M46.8581 69.5708C46.397 69.5708 46.0383 69.9283 46.0383 70.3879V73.3498H49.8298V69.5708H46.8581Z" fill="#1A4A73"/>
<path d="M52.8528 69.5708C53.3139 69.5708 53.6726 69.9283 53.6726 70.3879V73.3498H49.8811V69.5708H52.8528Z" fill="#1A4A73"/>
<path d="M95.3787 72.5327C95.3787 72.9923 95.7373 73.3498 96.1984 73.3498H98.4016C98.8627 73.3498 99.2214 72.9923 99.2214 72.5327V69.5708H95.4299V72.5327H95.3787Z" fill="#1A4A73"/>
<path d="M99.9899 69.5708H99.1702V70.3879C99.1702 69.9283 99.5288 69.5708 99.9899 69.5708Z" fill="#1A4A73"/>
<path d="M103.781 69.5708H105.985C106.446 69.5708 106.804 69.9283 106.804 70.3879V72.5838C106.804 73.0434 106.446 73.4009 105.985 73.4009H103.781C103.32 73.4009 102.962 73.0434 102.962 72.5838V70.3879C102.962 69.9283 103.32 69.5708 103.781 69.5708Z" fill="#1A4A73"/>
<path d="M110.596 72.5327C110.596 72.9923 110.954 73.3498 111.415 73.3498H114.387V69.5708H110.596V72.5327Z" fill="#1A4A73"/>
<path d="M115.156 73.3496H117.359C117.82 73.3496 118.179 72.9921 118.179 72.5325V70.3366C118.179 69.877 117.82 69.5195 117.359 69.5195H114.387V73.2985H115.156V73.3496Z" fill="#1A4A73"/>
<path d="M129.553 72.5325V70.3366C129.553 69.877 129.194 69.5195 128.733 69.5195H126.53C126.069 69.5195 125.71 69.877 125.71 70.3366V73.2985H129.502V72.5325H129.553Z" fill="#1A4A73"/>
<path d="M31.6923 73.3496H33.8955C34.3566 73.3496 34.7153 73.7071 34.7153 74.1667V76.3626C34.7153 76.8222 34.3566 77.1797 33.8955 77.1797H31.6923C31.2312 77.1797 30.8726 76.8222 30.8726 76.3626V74.1667C30.8726 73.7071 31.2312 73.3496 31.6923 73.3496Z" fill="#1A4A73"/>
<path d="M37.6357 77.1286C38.0969 77.1286 38.4555 76.7711 38.4555 76.3115V77.1286H37.6357Z" fill="#1A4A73"/>
<path d="M39.2751 73.3496C38.814 73.3496 38.4553 73.7071 38.4553 74.1667V77.1286H42.2468V73.3496H39.2751Z" fill="#1A4A73"/>
<path d="M46.0383 73.3496H42.2468V77.1286H46.0383V73.3496Z" fill="#1A4A73"/>
<path d="M49.8298 73.3496H46.0383V77.1286H49.8298V73.3496Z" fill="#1A4A73"/>
<path d="M53.6213 76.3115C53.6213 76.7711 53.2627 77.1286 52.8015 77.1286H49.8298V73.3496H53.6213V76.3115Z" fill="#1A4A73"/>
<path d="M105.985 77.1286C106.446 77.1286 106.804 76.7711 106.804 76.3115V77.1286H105.985Z" fill="#1A4A73"/>
<path d="M110.596 76.3116V74.1157C110.596 73.6561 110.237 73.2986 109.776 73.2986H107.573C107.112 73.2986 106.753 73.6561 106.753 74.1157V77.0776H110.545V76.3116H110.596Z" fill="#1A4A73"/>
<path d="M111.364 77.1286C110.903 77.1286 110.544 76.7711 110.544 76.3115V77.1286H111.364Z" fill="#1A4A73"/>
<path d="M121.97 76.3116V74.1157C121.97 73.6561 121.612 73.2986 121.15 73.2986H118.947C118.486 73.2986 118.127 73.6561 118.127 74.1157V77.0776H121.919V76.3116H121.97Z" fill="#1A4A73"/>
<path d="M124.942 77.1286C125.403 77.1286 125.762 76.7711 125.762 76.3115V77.1286H124.942Z" fill="#1A4A73"/>
<path d="M122.739 77.1286C122.278 77.1286 121.919 76.7711 121.919 76.3115V77.1286H122.739Z" fill="#1A4A73"/>
<path d="M129.553 73.3496H125.762V77.1286H129.553V73.3496Z" fill="#1A4A73"/>
<path d="M26.2612 77.1287H24.0581C23.5969 77.1287 23.2383 77.4861 23.2383 77.9457V80.1416C23.2383 80.6013 23.5969 80.9587 24.0581 80.9587H27.081V77.1797H26.2612V77.1287Z" fill="#1A4A73"/>
<path d="M27.9008 80.9077H30.104C30.5651 80.9077 30.9238 80.5502 30.9238 80.0906V77.8947C30.9238 77.4351 30.5651 77.0776 30.104 77.0776H27.0811V80.8566H27.9008V80.9077Z" fill="#1A4A73"/>
<path d="M37.6357 77.1287H35.4326C34.9714 77.1287 34.6128 77.4861 34.6128 77.9457V80.1416C34.6128 80.6013 34.9714 80.9587 35.4326 80.9587H38.4043V77.1797H37.6357V77.1287Z" fill="#1A4A73"/>
<path d="M42.2468 77.1287H38.4553V80.9077H42.2468V77.1287Z" fill="#1A4A73"/>
<path d="M43.0666 77.1287H42.2468V77.9457C42.2468 77.4861 42.6055 77.1287 43.0666 77.1287Z" fill="#1A4A73"/>
<path d="M46.0383 77.9457V77.1287H45.2185C45.6796 77.1287 46.0383 77.4861 46.0383 77.9457Z" fill="#1A4A73"/>
<path d="M45.2698 80.9077C45.7309 80.9077 46.0896 80.5502 46.0896 80.0906V80.9077H45.2698Z" fill="#1A4A73"/>
<path d="M43.0666 80.9077C42.6055 80.9077 42.2468 80.5502 42.2468 80.0906V80.9077H43.0666Z" fill="#1A4A73"/>
<path d="M49.8298 77.1287H46.0383V80.9077H49.8298V77.1287Z" fill="#1A4A73"/>
<path d="M50.6496 77.1287H49.8298V77.9457C49.8298 77.4861 50.1885 77.1287 50.6496 77.1287Z" fill="#1A4A73"/>
<path d="M50.6496 80.9077C50.1885 80.9077 49.8298 80.5502 49.8298 80.0906V80.9077H50.6496Z" fill="#1A4A73"/>
<path d="M99.9899 77.1287C99.5288 77.1287 99.1702 77.4861 99.1702 77.9457V80.9077H102.962V77.1287H99.9899Z" fill="#1A4A73"/>
<path d="M106.753 77.1287H102.962V80.9077H106.753V77.1287Z" fill="#1A4A73"/>
<path d="M110.545 77.1287H106.753V80.9077H110.545V77.1287Z" fill="#1A4A73"/>
<path d="M111.364 80.9077H113.567C114.029 80.9077 114.387 80.5502 114.387 80.0906V77.8947C114.387 77.4351 114.029 77.0776 113.567 77.0776H110.596V80.8566H111.364V80.9077Z" fill="#1A4A73"/>
<path d="M118.179 80.0906C118.179 80.5502 118.537 80.9077 118.998 80.9077H121.97V77.1287H118.179V80.0906Z" fill="#1A4A73"/>
<path d="M125.762 77.1287H121.97V80.9077H125.762V77.1287Z" fill="#1A4A73"/>
<path d="M129.553 80.0906C129.553 80.5502 129.195 80.9077 128.733 80.9077H125.762V77.1287H129.553V80.0906Z" fill="#1A4A73"/>
<path d="M38.4555 81.7248V80.9077H37.6357C38.0969 80.9077 38.4555 81.2652 38.4555 81.7248Z" fill="#1A4A73"/>
<path d="M42.2468 80.9077H38.4553V84.6867H42.2468V80.9077Z" fill="#1A4A73"/>
<path d="M46.0383 80.9077H42.2468V84.6867H46.0383V80.9077Z" fill="#1A4A73"/>
<path d="M49.8298 80.9077H46.0383V84.6867H49.8298V80.9077Z" fill="#1A4A73"/>
<path d="M50.6496 84.6868H52.8528C53.3139 84.6868 53.6726 84.3293 53.6726 83.8697V81.6738C53.6726 81.2142 53.3139 80.8567 52.8528 80.8567H49.8811V84.6357H50.6496V84.6868Z" fill="#1A4A73"/>
<path d="M99.1702 83.8696C99.1702 84.3292 99.5288 84.6867 99.9899 84.6867H102.193C102.654 84.6867 103.013 84.3292 103.013 83.8696V80.9077H99.2214V83.8696H99.1702Z" fill="#1A4A73"/>
<path d="M103.781 80.9077H102.962V81.7248C102.962 81.2652 103.32 80.9077 103.781 80.9077Z" fill="#1A4A73"/>
<path d="M106.753 81.7248V80.9077H105.985C106.395 80.9077 106.753 81.2652 106.753 81.7248Z" fill="#1A4A73"/>
<path d="M105.985 84.6867C106.446 84.6867 106.804 84.3292 106.804 83.8696V84.6867H105.985Z" fill="#1A4A73"/>
<path d="M110.545 80.9077H106.753V84.6867H110.545V80.9077Z" fill="#1A4A73"/>
<path d="M111.364 80.9077H110.596V81.7248C110.596 81.2652 110.954 80.9077 111.364 80.9077Z" fill="#1A4A73"/>
<path d="M20.3178 84.6868C19.8567 84.6868 19.498 85.0442 19.498 85.5039V88.4658H23.2895V84.6868H20.3178Z" fill="#1A4A73"/>
<path d="M27.081 84.6868H23.2896V88.4658H27.081V84.6868Z" fill="#1A4A73"/>
<path d="M30.0527 84.6868C30.5139 84.6868 30.8725 85.0442 30.8725 85.5039V88.4658H27.0811V84.6868H30.0527Z" fill="#1A4A73"/>
<path d="M38.4553 87.6487C38.4553 88.1083 38.814 88.4658 39.2751 88.4658H41.4783C41.9394 88.4658 42.298 88.1083 42.298 87.6487V84.6868H38.5066V87.6487H38.4553Z" fill="#1A4A73"/>
<path d="M43.0666 84.6868H42.2468V85.5039C42.2468 85.0442 42.6055 84.6868 43.0666 84.6868Z" fill="#1A4A73"/>
<path d="M96.1984 84.6868H98.4016C98.8627 84.6868 99.2214 85.0442 99.2214 85.5039V87.6997C99.2214 88.1594 98.8627 88.5168 98.4016 88.5168H96.1984C95.7373 88.5168 95.3787 88.1594 95.3787 87.6997V85.5039C95.3787 85.0442 95.7373 84.6868 96.1984 84.6868Z" fill="#1A4A73"/>
<path d="M105.985 84.6868H103.781C103.32 84.6868 102.962 85.0442 102.962 85.5039V87.6997C102.962 88.1594 103.32 88.5168 103.781 88.5168H106.753V84.6868H105.985Z" fill="#1A4A73"/>
<path d="M110.596 87.6487C110.596 88.1083 110.237 88.4658 109.776 88.4658H106.804V84.6868H110.596V87.6487Z" fill="#1A4A73"/>
<path d="M115.156 84.6868H117.359C117.82 84.6868 118.179 85.0442 118.179 85.5039V87.6997C118.179 88.1594 117.82 88.5168 117.359 88.5168H115.156C114.695 88.5168 114.336 88.1594 114.336 87.6997V85.5039C114.387 85.0442 114.746 84.6868 115.156 84.6868Z" fill="#1A4A73"/>
<path d="M122.739 84.6868H124.942C125.403 84.6868 125.762 85.0442 125.762 85.5039V87.6997C125.762 88.1594 125.403 88.5168 124.942 88.5168H122.739C122.278 88.5168 121.919 88.1594 121.919 87.6997V85.5039C121.97 85.0442 122.329 84.6868 122.739 84.6868Z" fill="#1A4A73"/>
<path d="M23.2895 88.4658H19.498V92.2448H23.2895V88.4658Z" fill="#1A4A73"/>
<path d="M24.1093 88.4658H23.2896V89.2829C23.2896 88.8233 23.6482 88.4658 24.1093 88.4658Z" fill="#1A4A73"/>
<path d="M27.081 89.2829V88.4658H26.2612C26.7224 88.4658 27.081 88.8233 27.081 89.2829Z" fill="#1A4A73"/>
<path d="M30.8725 88.4658H27.0811V92.2448H30.8725V88.4658Z" fill="#1A4A73"/>
<path d="M35.4838 88.4658H37.687C38.1481 88.4658 38.5068 88.8233 38.5068 89.2829V91.4788C38.5068 91.9384 38.1481 92.2959 37.687 92.2959H35.4838C35.0227 92.2959 34.6641 91.9384 34.6641 91.4788V89.2829C34.6641 88.8233 35.0227 88.4658 35.4838 88.4658Z" fill="#1A4A73"/>
<path d="M45.2698 88.4658H43.0666C42.6055 88.4658 42.2468 88.8233 42.2468 89.2829V91.4788C42.2468 91.9384 42.6055 92.2959 43.0666 92.2959H46.0383V88.5169H45.2698V88.4658Z" fill="#1A4A73"/>
<path d="M49.8298 88.4658H46.0383V92.2448H49.8298V88.4658Z" fill="#1A4A73"/>
<path d="M52.8528 88.4658C53.3139 88.4658 53.6726 88.8233 53.6726 89.2829V92.2448H49.8811V88.4658H52.8528Z" fill="#1A4A73"/>
<path d="M99.9899 88.4658H102.193C102.654 88.4658 103.013 88.8233 103.013 89.2829V91.4788C103.013 91.9384 102.654 92.2959 102.193 92.2959H99.9899C99.5288 92.2959 99.1702 91.9384 99.1702 91.4788V89.2829C99.1702 88.8233 99.5288 88.4658 99.9899 88.4658Z" fill="#1A4A73"/>
<path d="M118.947 88.4658H121.15C121.612 88.4658 121.97 88.8233 121.97 89.2829V91.4788C121.97 91.9384 121.612 92.2959 121.15 92.2959H118.947C118.486 92.2959 118.127 91.9384 118.127 91.4788V89.2829C118.179 88.8233 118.537 88.4658 118.947 88.4658Z" fill="#1A4A73"/>
<path d="M23.2895 92.2446H19.498V96.0236H23.2895V92.2446Z" fill="#1A4A73"/>
<path d="M30.8725 92.2446H27.0811V96.0236H30.8725V92.2446Z" fill="#1A4A73"/>
<path d="M31.6923 96.0236C31.2312 96.0236 30.8726 95.6662 30.8726 95.2065V96.0236H31.6923Z" fill="#1A4A73"/>
<path d="M39.2751 92.2446H41.4783C41.9394 92.2446 42.298 92.6021 42.298 93.0617V95.2576C42.298 95.7172 41.9394 96.0747 41.4783 96.0747H39.2751C38.814 96.0747 38.4553 95.7172 38.4553 95.2576V93.0617C38.4553 92.6021 38.814 92.2446 39.2751 92.2446Z" fill="#1A4A73"/>
<path d="M46.0383 93.0617V92.2446H45.2185C45.6796 92.2446 46.0383 92.6021 46.0383 93.0617Z" fill="#1A4A73"/>
<path d="M46.0383 95.2576C46.0383 95.7172 46.397 96.0747 46.8581 96.0747H49.8298V92.2957H46.0383V95.2576Z" fill="#1A4A73"/>
<path d="M53.6213 95.2576C53.6213 95.7172 53.2627 96.0747 52.8015 96.0747H49.8298V92.2957H53.6213V95.2576Z" fill="#1A4A73"/>
<path d="M99.1701 95.2576V93.0617C99.1701 92.6021 98.8115 92.2446 98.3503 92.2446H96.1472C95.686 92.2446 95.3274 92.6021 95.3274 93.0617V96.0236H99.1189V95.2576H99.1701Z" fill="#1A4A73"/>
<path d="M102.193 96.0236C102.654 96.0236 103.013 95.6662 103.013 95.2065V96.0236H102.193Z" fill="#1A4A73"/>
<path d="M99.9899 96.0236C99.5288 96.0236 99.1702 95.6662 99.1702 95.2065V96.0236H99.9899Z" fill="#1A4A73"/>
<path d="M106.753 95.2576V93.0617C106.753 92.6021 106.394 92.2446 105.933 92.2446H103.73C103.269 92.2446 102.91 92.6021 102.91 93.0617V96.0236H106.702V95.2576H106.753Z" fill="#1A4A73"/>
<path d="M109.776 96.0236C110.237 96.0236 110.596 95.6662 110.596 95.2065V96.0236H109.776Z" fill="#1A4A73"/>
<path d="M107.573 96.0236C107.112 96.0236 106.753 95.6662 106.753 95.2065V96.0236H107.573Z" fill="#1A4A73"/>
<path d="M111.364 92.2446C110.903 92.2446 110.544 92.6021 110.544 93.0617V96.0236H114.336V92.2446H111.364Z" fill="#1A4A73"/>
<path d="M115.156 96.0237H117.359C117.82 96.0237 118.179 95.6662 118.179 95.2066V93.0107C118.179 92.5511 117.82 92.1936 117.359 92.1936H114.387V95.9726H115.156V96.0237Z" fill="#1A4A73"/>
<path d="M122.739 92.2446C122.278 92.2446 121.919 92.6021 121.919 93.0617V96.0236H125.71V92.2446H122.739Z" fill="#1A4A73"/>
<path d="M128.733 92.2446C129.195 92.2446 129.553 92.6021 129.553 93.0617V96.0236H125.762V92.2446H128.733Z" fill="#1A4A73"/>
<path d="M19.498 99.0366C19.498 99.4962 19.8567 99.8537 20.3178 99.8537H22.4697C22.9309 99.8537 23.2895 99.4962 23.2895 99.0366V96.0747H19.498V99.0366Z" fill="#1A4A73"/>
<path d="M27.0811 99.0366C27.0811 99.4962 27.4397 99.8537 27.9008 99.8537H30.8725V96.0747H27.0811V99.0366Z" fill="#1A4A73"/>
<path d="M31.6924 99.8027H33.8955C34.3566 99.8027 34.7153 99.4452 34.7153 98.9856V96.7897C34.7153 96.3301 34.3566 95.9727 33.8955 95.9727H30.9238V99.7516H31.6924V99.8027Z" fill="#1A4A73"/>
<path d="M43.0666 96.0237H45.2698C45.7309 96.0237 46.0895 96.3812 46.0895 96.8408V99.0367C46.0895 99.4963 45.7309 99.8537 45.2698 99.8537H43.0666C42.6055 99.8537 42.2468 99.4963 42.2468 99.0367V96.8408C42.2468 96.3812 42.6055 96.0237 43.0666 96.0237Z" fill="#1A4A73"/>
<path d="M65.8154 96.0237C65.3543 96.0237 64.9956 96.3812 64.9956 96.8408V99.8027H68.7871V96.0237H65.8154Z" fill="#1A4A73"/>
<path d="M71.8101 96.0237C72.2712 96.0237 72.6298 96.3812 72.6298 96.8408V99.8027H68.8384V96.0237H71.8101Z" fill="#1A4A73"/>
<path d="M75.6016 99.8027C76.0627 99.8027 76.4213 99.4452 76.4213 98.9856V99.8027H75.6016Z" fill="#1A4A73"/>
<path d="M73.4497 99.8027C72.9885 99.8027 72.6299 99.4452 72.6299 98.9856V99.8027H73.4497Z" fill="#1A4A73"/>
<path d="M80.2128 99.0367V96.8408C80.2128 96.3812 79.8542 96.0237 79.3931 96.0237H77.1899C76.7288 96.0237 76.3701 96.3812 76.3701 96.8408V99.8027H80.1616V99.0367H80.2128Z" fill="#1A4A73"/>
<path d="M81.0327 99.8027C80.5715 99.8027 80.2129 99.4452 80.2129 98.9856V99.8027H81.0327Z" fill="#1A4A73"/>
<path d="M86.9761 99.8027C87.4372 99.8027 87.7959 99.4452 87.7959 98.9856V99.8027H86.9761Z" fill="#1A4A73"/>
<path d="M91.5873 99.0367V96.8408C91.5873 96.3812 91.2287 96.0237 90.7676 96.0237H88.5644C88.1033 96.0237 87.7446 96.3812 87.7446 96.8408V99.8027H91.5361V99.0367H91.5873Z" fill="#1A4A73"/>
<path d="M94.6101 99.8027C95.0712 99.8027 95.4299 99.4452 95.4299 98.9856V99.8027H94.6101Z" fill="#1A4A73"/>
<path d="M92.4069 99.8027C91.9458 99.8027 91.5872 99.4452 91.5872 98.9856V99.8027H92.4069Z" fill="#1A4A73"/>
<path d="M99.1701 96.0237H95.3787V99.8027H99.1701V96.0237Z" fill="#1A4A73"/>
<path d="M102.962 96.0237H99.1702V99.8027H102.962V96.0237Z" fill="#1A4A73"/>
<path d="M106.753 96.0237H102.962V99.8027H106.753V96.0237Z" fill="#1A4A73"/>
<path d="M110.545 96.0237H106.753V99.8027H110.545V96.0237Z" fill="#1A4A73"/>
<path d="M114.387 96.0237H110.596V99.8027H114.387V96.0237Z" fill="#1A4A73"/>
<path d="M115.156 96.0237H114.336V96.8408C114.387 96.3812 114.746 96.0237 115.156 96.0237Z" fill="#1A4A73"/>
<path d="M115.156 99.8027C114.695 99.8027 114.336 99.4452 114.336 98.9856V99.8027H115.156Z" fill="#1A4A73"/>
<path d="M121.97 99.0366C121.97 99.4962 122.329 99.8537 122.79 99.8537H125.762V96.0747H121.97V99.0366Z" fill="#1A4A73"/>
<path d="M129.553 96.0237H125.762V99.8027H129.553V96.0237Z" fill="#1A4A73"/>
<path d="M52.8528 99.8027H50.6496C50.1885 99.8027 49.8298 100.16 49.8298 100.62V102.816C49.8298 103.275 50.1885 103.633 50.6496 103.633H53.6213V99.8538H52.8528V99.8027Z" fill="#1A4A73"/>
<path d="M56.6443 99.8027C57.1054 99.8027 57.4641 100.16 57.4641 100.62V103.582H53.6726V99.8027H56.6443Z" fill="#1A4A73"/>
<path d="M65.0469 102.816C65.0469 103.275 65.4055 103.633 65.8667 103.633H68.8383V99.8538H65.0469V102.816Z" fill="#1A4A73"/>
<path d="M72.6298 99.8027H68.8384V103.582H72.6298V99.8027Z" fill="#1A4A73"/>
<path d="M76.4214 99.8027H72.6299V103.582H76.4214V99.8027Z" fill="#1A4A73"/>
<path d="M80.2128 99.8027H76.4214V103.582H80.2128V99.8027Z" fill="#1A4A73"/>
<path d="M84.0044 99.8027H80.2129V103.582H84.0044V99.8027Z" fill="#1A4A73"/>
<path d="M87.7959 99.8027H84.0044V103.582H87.7959V99.8027Z" fill="#1A4A73"/>
<path d="M91.5874 99.8027H87.7959V103.582H91.5874V99.8027Z" fill="#1A4A73"/>
<path d="M95.3786 99.8027H91.5872V103.582H95.3786V99.8027Z" fill="#1A4A73"/>
<path d="M99.1701 99.8027H95.3787V103.582H99.1701V99.8027Z" fill="#1A4A73"/>
<path d="M99.9899 99.8027H99.1702V100.62C99.1702 100.16 99.5288 99.8027 99.9899 99.8027Z" fill="#1A4A73"/>
<path d="M110.596 100.62V99.8027H109.776C110.186 99.8027 110.596 100.16 110.596 100.62Z" fill="#1A4A73"/>
<path d="M114.387 99.8027H110.596V103.582H114.387V99.8027Z" fill="#1A4A73"/>
<path d="M117.359 99.8027C117.82 99.8027 118.179 100.16 118.179 100.62V103.582H114.387V99.8027H117.359Z" fill="#1A4A73"/>
<path d="M118.947 103.582C118.486 103.582 118.127 103.224 118.127 102.765V103.582H118.947Z" fill="#1A4A73"/>
<path d="M125.762 100.62V99.8027H124.942C125.403 99.8027 125.762 100.16 125.762 100.62Z" fill="#1A4A73"/>
<path d="M125.762 102.816C125.762 103.275 126.12 103.633 126.581 103.633H128.785C129.246 103.633 129.604 103.275 129.604 102.816V99.8538H125.813V102.816H125.762Z" fill="#1A4A73"/>
<path d="M53.6213 104.399V103.582H52.8015C53.2626 103.582 53.6213 103.939 53.6213 104.399Z" fill="#1A4A73"/>
<path d="M57.4128 103.582H53.6213V107.361H57.4128V103.582Z" fill="#1A4A73"/>
<path d="M58.2324 107.361C57.7713 107.361 57.4126 107.003 57.4126 106.543V107.361H58.2324Z" fill="#1A4A73"/>
<path d="M72.6298 104.399V103.582H71.8101C72.2712 103.582 72.6298 103.939 72.6298 104.399Z" fill="#1A4A73"/>
<path d="M71.8101 107.361C72.2712 107.361 72.6298 107.003 72.6298 106.543V107.361H71.8101Z" fill="#1A4A73"/>
<path d="M76.4214 103.582H72.6299V107.361H76.4214V103.582Z" fill="#1A4A73"/>
<path d="M77.2411 103.582H76.4214V104.399C76.4214 103.939 76.78 103.582 77.2411 103.582Z" fill="#1A4A73"/>
<path d="M84.0043 104.399V103.582H83.1846C83.6457 103.582 84.0043 103.939 84.0043 104.399Z" fill="#1A4A73"/>
<path d="M87.7959 103.582H84.0044V107.361H87.7959V103.582Z" fill="#1A4A73"/>
<path d="M91.5874 103.582H87.7959V107.361H91.5874V103.582Z" fill="#1A4A73"/>
<path d="M95.3786 103.582H91.5872V107.361H95.3786V103.582Z" fill="#1A4A73"/>
<path d="M99.1701 103.582H95.3787V107.361H99.1701V103.582Z" fill="#1A4A73"/>
<path d="M103.781 103.582H105.985C106.446 103.582 106.804 103.939 106.804 104.399V106.595C106.804 107.054 106.446 107.412 105.985 107.412H103.781C103.32 107.412 102.962 107.054 102.962 106.595V104.399C102.962 103.939 103.32 103.582 103.781 103.582Z" fill="#1A4A73"/>
<path d="M114.387 103.582H110.596V107.361H114.387V103.582Z" fill="#1A4A73"/>
<path d="M118.179 103.582H114.387V107.361H118.179V103.582Z" fill="#1A4A73"/>
<path d="M121.97 103.582H118.179V107.361H121.97V103.582Z" fill="#1A4A73"/>
<path d="M124.942 103.582C125.403 103.582 125.762 103.939 125.762 104.399V107.361H121.97V103.582H124.942Z" fill="#1A4A73"/>
<path d="M126.581 107.361C126.12 107.361 125.762 107.003 125.762 106.543V107.361H126.581Z" fill="#1A4A73"/>
<path d="M52.8528 111.191C53.3139 111.191 53.6726 110.833 53.6726 110.374V111.191H52.8528Z" fill="#1A4A73"/>
<path d="M57.4128 107.361H53.6213V111.14H57.4128V107.361Z" fill="#1A4A73"/>
<path d="M58.2324 111.191H60.4356C60.8967 111.191 61.2553 110.833 61.2553 110.374V108.178C61.2553 107.718 60.8967 107.361 60.4356 107.361H57.4639V111.14H58.2324V111.191Z" fill="#1A4A73"/>
<path d="M71.81 107.361H69.6069C69.1458 107.361 68.7871 107.718 68.7871 108.178V110.374C68.7871 110.833 69.1458 111.191 69.6069 111.191H72.5786V107.412H71.81V107.361Z" fill="#1A4A73"/>
<path d="M76.4214 110.374C76.4214 110.833 76.0627 111.191 75.6016 111.191H72.6299V107.412H76.4214V110.374Z" fill="#1A4A73"/>
<path d="M87.7959 107.361H84.0044V111.14H87.7959V107.361Z" fill="#1A4A73"/>
<path d="M88.6157 107.361H87.7959V108.178C87.7959 107.769 88.1546 107.361 88.6157 107.361Z" fill="#1A4A73"/>
<path d="M91.5873 108.178V107.361H90.7676C91.2287 107.361 91.5873 107.769 91.5873 108.178Z" fill="#1A4A73"/>
<path d="M90.7676 111.191C91.2287 111.191 91.5873 110.833 91.5873 110.374V111.191H90.7676Z" fill="#1A4A73"/>
<path d="M88.6157 111.191C88.1546 111.191 87.7959 110.833 87.7959 110.374V111.191H88.6157Z" fill="#1A4A73"/>
<path d="M95.3786 107.361H91.5872V111.14H95.3786V107.361Z" fill="#1A4A73"/>
<path d="M99.1701 107.361H95.3787V111.14H99.1701V107.361Z" fill="#1A4A73"/>
<path d="M99.9899 111.191C99.5288 111.191 99.1702 110.833 99.1702 110.374V111.191H99.9899Z" fill="#1A4A73"/>
<path d="M109.776 111.191C110.237 111.191 110.596 110.833 110.596 110.374V111.191H109.776Z" fill="#1A4A73"/>
<path d="M114.387 107.361H110.596V111.14H114.387V107.361Z" fill="#1A4A73"/>
<path d="M118.179 110.374C118.179 110.833 117.82 111.191 117.359 111.191H114.387V107.412H118.179V110.374Z" fill="#1A4A73"/>
<path d="M118.947 107.361H118.127V108.178C118.179 107.769 118.537 107.361 118.947 107.361Z" fill="#1A4A73"/>
<path d="M121.97 108.178V107.361H121.15C121.612 107.361 121.97 107.769 121.97 108.178Z" fill="#1A4A73"/>
<path d="M121.97 110.374C121.97 110.833 122.329 111.191 122.79 111.191H125.762V107.412H121.97V110.374Z" fill="#1A4A73"/>
<path d="M126.582 111.191H128.785C129.246 111.191 129.604 110.833 129.604 110.374V108.178C129.604 107.718 129.246 107.361 128.785 107.361H125.813V111.14H126.582V111.191Z" fill="#1A4A73"/>
<path d="M50.6496 111.191C50.1885 111.191 49.8298 111.548 49.8298 112.008V114.97H53.6213V111.191H50.6496Z" fill="#1A4A73"/>
<path d="M57.4128 111.191H53.6213V114.97H57.4128V111.191Z" fill="#1A4A73"/>
<path d="M58.2324 111.191H57.4126V112.008C57.4638 111.548 57.8225 111.191 58.2324 111.191Z" fill="#1A4A73"/>
<path d="M58.2324 114.97C57.7713 114.97 57.4126 114.612 57.4126 114.153V114.97H58.2324Z" fill="#1A4A73"/>
<path d="M64.227 111.191H62.0239C61.5628 111.191 61.2041 111.548 61.2041 112.008V114.204C61.2041 114.663 61.5628 115.021 62.0239 115.021H64.9956V111.242H64.227V111.191Z" fill="#1A4A73"/>
<path d="M68.0186 111.191C68.4797 111.191 68.8383 111.548 68.8383 112.008V114.97H65.0469V111.191H68.0186Z" fill="#1A4A73"/>
<path d="M69.6069 114.97C69.1458 114.97 68.7871 114.612 68.7871 114.153V114.97H69.6069Z" fill="#1A4A73"/>
<path d="M75.6016 114.97C76.0627 114.97 76.4213 114.612 76.4213 114.153V114.97H75.6016Z" fill="#1A4A73"/>
<path d="M80.2128 114.153V111.957C80.2128 111.497 79.8542 111.14 79.3931 111.14H77.1899C76.7288 111.14 76.3701 111.497 76.3701 111.957V114.919H80.1616V114.153H80.2128Z" fill="#1A4A73"/>
<path d="M83.1846 114.97C83.6457 114.97 84.0043 114.612 84.0043 114.153V114.97H83.1846Z" fill="#1A4A73"/>
<path d="M81.0327 114.97C80.5715 114.97 80.2129 114.612 80.2129 114.153V114.97H81.0327Z" fill="#1A4A73"/>
<path d="M87.7959 111.191H84.0044V114.97H87.7959V111.191Z" fill="#1A4A73"/>
<path d="M91.5874 111.191H87.7959V114.97H91.5874V111.191Z" fill="#1A4A73"/>
<path d="M95.3786 111.191H91.5872V114.97H95.3786V111.191Z" fill="#1A4A73"/>
<path d="M99.1701 111.191H95.3787V114.97H99.1701V111.191Z" fill="#1A4A73"/>
<path d="M102.962 111.191H99.1702V114.97H102.962V111.191Z" fill="#1A4A73"/>
<path d="M106.753 111.191H102.962V114.97H106.753V111.191Z" fill="#1A4A73"/>
<path d="M110.545 111.191H106.753V114.97H110.545V111.191Z" fill="#1A4A73"/>
<path d="M114.387 111.191H110.596V114.97H114.387V111.191Z" fill="#1A4A73"/>
<path d="M115.156 111.191H114.336V112.008C114.387 111.548 114.746 111.191 115.156 111.191Z" fill="#1A4A73"/>
<path d="M115.156 114.97C114.695 114.97 114.336 114.612 114.336 114.153V114.97H115.156Z" fill="#1A4A73"/>
<path d="M53.6213 114.97H49.8298V118.749H53.6213V114.97Z" fill="#1A4A73"/>
<path d="M57.4128 114.97H53.6213V118.749H57.4128V114.97Z" fill="#1A4A73"/>
<path d="M58.2324 118.749H60.4356C60.8967 118.749 61.2553 118.391 61.2553 117.932V115.736C61.2553 115.276 60.8967 114.919 60.4356 114.919H57.4639V118.698H58.2324V118.749Z" fill="#1A4A73"/>
<path d="M65.0468 115.736V114.919H64.2271C64.6882 114.97 65.0468 115.327 65.0468 115.736Z" fill="#1A4A73"/>
<path d="M64.2271 118.749C64.6882 118.749 65.0468 118.391 65.0468 117.932V118.749H64.2271Z" fill="#1A4A73"/>
<path d="M68.8383 114.97H65.0469V118.749H68.8383V114.97Z" fill="#1A4A73"/>
<path d="M72.6298 114.97H68.8384V118.749H72.6298V114.97Z" fill="#1A4A73"/>
<path d="M76.4214 114.97H72.6299V118.749H76.4214V114.97Z" fill="#1A4A73"/>
<path d="M80.2128 114.97H76.4214V118.749H80.2128V114.97Z" fill="#1A4A73"/>
<path d="M84.0044 114.97H80.2129V118.749H84.0044V114.97Z" fill="#1A4A73"/>
<path d="M87.7959 114.97H84.0044V118.749H87.7959V114.97Z" fill="#1A4A73"/>
<path d="M91.5874 114.97H87.7959V118.749H91.5874V114.97Z" fill="#1A4A73"/>
<path d="M92.4069 114.97H91.5872V115.787C91.5872 115.327 91.9458 114.97 92.4069 114.97Z" fill="#1A4A73"/>
<path d="M95.3789 115.736V114.919H94.5591C95.0202 114.97 95.3789 115.327 95.3789 115.736Z" fill="#1A4A73"/>
<path d="M95.3787 117.932C95.3787 118.391 95.7373 118.749 96.1984 118.749H99.1701V114.97H95.3787V117.932Z" fill="#1A4A73"/>
<path d="M102.962 114.97H99.1702V118.749H102.962V114.97Z" fill="#1A4A73"/>
<path d="M106.753 114.97H102.962V118.749H106.753V114.97Z" fill="#1A4A73"/>
<path d="M107.573 114.97H106.753V115.787C106.753 115.327 107.163 114.97 107.573 114.97Z" fill="#1A4A73"/>
<path d="M110.596 115.736V114.919H109.776C110.186 114.97 110.596 115.327 110.596 115.736Z" fill="#1A4A73"/>
<path d="M109.776 118.749C110.237 118.749 110.596 118.391 110.596 117.932V118.749H109.776Z" fill="#1A4A73"/>
<path d="M107.573 118.749C107.112 118.749 106.753 118.391 106.753 117.932V118.749H107.573Z" fill="#1A4A73"/>
<path d="M114.387 114.97H110.596V118.749H114.387V114.97Z" fill="#1A4A73"/>
<path d="M115.156 118.749H117.359C117.82 118.749 118.179 118.391 118.179 117.932V115.736C118.179 115.276 117.82 114.919 117.359 114.919H114.387V118.698H115.156V118.749Z" fill="#1A4A73"/>
<path d="M49.8298 121.711C49.8298 122.17 50.1885 122.528 50.6496 122.528H53.6213V118.749H49.8298V121.711Z" fill="#1A4A73"/>
<path d="M57.4128 118.749H53.6213V122.528H57.4128V118.749Z" fill="#1A4A73"/>
<path d="M58.2324 118.749H57.4126V119.566C57.4638 119.106 57.8225 118.749 58.2324 118.749Z" fill="#1A4A73"/>
<path d="M64.227 118.749H62.0239C61.5628 118.749 61.2041 119.106 61.2041 119.566V121.762C61.2041 122.221 61.5628 122.579 62.0239 122.579H64.9956V118.8H64.227V118.749Z" fill="#1A4A73"/>
<path d="M68.8383 118.749H65.0469V122.528H68.8383V118.749Z" fill="#1A4A73"/>
<path d="M72.6298 118.749H68.8384V122.528H72.6298V118.749Z" fill="#1A4A73"/>
<path d="M76.4214 118.749H72.6299V122.528H76.4214V118.749Z" fill="#1A4A73"/>
<path d="M77.2411 118.749H76.4214V119.566C76.4214 119.106 76.78 118.749 77.2411 118.749Z" fill="#1A4A73"/>
<path d="M80.2128 119.515V118.698H79.3931C79.8542 118.749 80.2128 119.106 80.2128 119.515Z" fill="#1A4A73"/>
<path d="M84.0044 118.749H80.2129V122.528H84.0044V118.749Z" fill="#1A4A73"/>
<path d="M87.7959 118.749H84.0044V122.528H87.7959V118.749Z" fill="#1A4A73"/>
<path d="M91.5874 118.749H87.7959V122.528H91.5874V118.749Z" fill="#1A4A73"/>
<path d="M92.4069 122.528C91.9458 122.528 91.5872 122.17 91.5872 121.711V122.528H92.4069Z" fill="#1A4A73"/>
<path d="M99.1704 119.515V118.698H98.3506C98.8117 118.749 99.1704 119.106 99.1704 119.515Z" fill="#1A4A73"/>
<path d="M102.962 118.749H99.1702V122.528H102.962V118.749Z" fill="#1A4A73"/>
<path d="M106.753 118.749H102.962V122.528H106.753V118.749Z" fill="#1A4A73"/>
<path d="M110.545 118.749H106.753V122.528H110.545V118.749Z" fill="#1A4A73"/>
<path d="M114.387 121.711C114.387 122.17 114.029 122.528 113.567 122.528H110.596V118.749H114.387V121.711Z" fill="#1A4A73"/>
<path d="M115.156 118.749H114.336V119.566C114.387 119.106 114.746 118.749 115.156 118.749Z" fill="#1A4A73"/>
<path d="M121.15 118.749H118.947C118.486 118.749 118.127 119.106 118.127 119.566V121.762C118.127 122.221 118.486 122.579 118.947 122.579H121.919V118.8H121.15V118.749Z" fill="#1A4A73"/>
<path d="M122.739 122.528H124.942C125.403 122.528 125.762 122.17 125.762 121.71V119.515C125.762 119.055 125.403 118.698 124.942 118.698H121.97V122.476H122.739V122.528Z" fill="#1A4A73"/>
<path d="M53.6213 123.294V122.477H52.8015C53.2626 122.528 53.6213 122.885 53.6213 123.294Z" fill="#1A4A73"/>
<path d="M53.6213 125.49C53.6213 125.949 53.98 126.307 54.4411 126.307H56.6443C57.1054 126.307 57.464 125.949 57.464 125.49V122.528H53.6726V125.49H53.6213Z" fill="#1A4A73"/>
<path d="M72.6298 123.294V122.477H71.8101C72.2712 122.528 72.6298 122.885 72.6298 123.294Z" fill="#1A4A73"/>
<path d="M76.4214 122.528H72.6299V126.307H76.4214V122.528Z" fill="#1A4A73"/>
<path d="M80.2129 125.49C80.2129 125.949 80.5715 126.307 81.0327 126.307H84.0044V122.528H80.2129V125.49Z" fill="#1A4A73"/>
<path d="M87.7959 122.528H84.0044V126.307H87.7959V122.528Z" fill="#1A4A73"/>
<path d="M91.5874 122.528H87.7959V126.307H91.5874V122.528Z" fill="#1A4A73"/>
<path d="M94.6101 122.528C95.0712 122.528 95.4299 122.885 95.4299 123.345V126.307H91.6384V122.528H94.6101Z" fill="#1A4A73"/>
<path d="M99.1702 125.49C99.1702 125.949 99.5288 126.307 99.9899 126.307H102.193C102.654 126.307 103.013 125.949 103.013 125.49V122.528H99.2214V125.49H99.1702Z" fill="#1A4A73"/>
<path d="M103.781 122.528H102.962V123.345C102.962 122.885 103.32 122.528 103.781 122.528Z" fill="#1A4A73"/>
<path d="M106.753 123.294V122.477H105.985C106.395 122.528 106.753 122.885 106.753 123.294Z" fill="#1A4A73"/>
<path d="M105.985 126.307C106.446 126.307 106.804 125.949 106.804 125.49V126.307H105.985Z" fill="#1A4A73"/>
<path d="M110.545 122.528H106.753V126.307H110.545V122.528Z" fill="#1A4A73"/>
<path d="M111.364 122.528H110.596V123.345C110.596 122.885 110.954 122.528 111.364 122.528Z" fill="#1A4A73"/>
<path d="M113.568 126.307C114.029 126.307 114.387 125.949 114.387 125.49V126.307H113.568Z" fill="#1A4A73"/>
<path d="M111.364 126.307C110.903 126.307 110.544 125.949 110.544 125.49V126.307H111.364Z" fill="#1A4A73"/>
<path d="M118.179 125.49V123.294C118.179 122.834 117.82 122.477 117.359 122.477H115.156C114.695 122.477 114.336 122.834 114.336 123.294V126.256H118.127V125.49H118.179Z" fill="#1A4A73"/>
<path d="M126.581 122.528H128.785C129.246 122.528 129.604 122.885 129.604 123.345V125.541C129.604 126 129.246 126.358 128.785 126.358H126.581C126.12 126.358 125.762 126 125.762 125.541V123.345C125.762 122.885 126.12 122.528 126.581 122.528Z" fill="#1A4A73"/>
<path d="M58.2324 126.307H60.4355C60.8967 126.307 61.2553 126.664 61.2553 127.124V129.32C61.2553 129.779 60.8967 130.137 60.4355 130.137H58.2324C57.7713 130.137 57.4126 129.779 57.4126 129.32V127.124C57.4638 126.664 57.8225 126.307 58.2324 126.307Z" fill="#1A4A73"/>
<path d="M72.6299 129.269C72.6299 129.728 72.9885 130.086 73.4497 130.086H75.6528C76.1139 130.086 76.4726 129.728 76.4726 129.269V126.307H72.6811V129.269H72.6299Z" fill="#1A4A73"/>
<path d="M84.0043 127.124V126.307H83.1846C83.6457 126.307 84.0043 126.664 84.0043 127.124Z" fill="#1A4A73"/>
<path d="M84.0044 129.269C84.0044 129.728 84.363 130.086 84.8242 130.086H87.7959V126.307H84.0044V129.269Z" fill="#1A4A73"/>
<path d="M91.5874 126.307H87.7959V130.086H91.5874V126.307Z" fill="#1A4A73"/>
<path d="M95.3786 129.269C95.3786 129.728 95.02 130.086 94.5589 130.086H91.5872V126.307H95.3786V129.269Z" fill="#1A4A73"/>
<path d="M105.985 126.307H103.781C103.32 126.307 102.962 126.664 102.962 127.124V129.32C102.962 129.779 103.32 130.137 103.781 130.137H106.753V126.358H105.985V126.307Z" fill="#1A4A73"/>
<path d="M110.545 126.307H106.753V130.086H110.545V126.307Z" fill="#1A4A73"/>
<path d="M114.387 126.307H110.596V130.086H114.387V126.307Z" fill="#1A4A73"/>
<path d="M118.179 129.269C118.179 129.728 117.82 130.086 117.359 130.086H114.387V126.307H118.179V129.269Z" fill="#1A4A73"/>
<path d="M20.3178 20.3926C19.8567 20.3926 19.498 20.7501 19.498 21.2097V24.1716V27.9506V31.7296V35.5086V39.2876V43.0666V46.0285C19.498 46.4881 19.8567 46.8456 20.3178 46.8456H45.2698C45.7309 46.8456 46.0896 46.4881 46.0896 46.0285V43.0666V39.2876V35.5086V31.7296V27.9506V24.1716V21.2097C46.0896 20.7501 45.7309 20.3926 45.2698 20.3926H20.3178ZM42.2469 27.9506V31.7296V35.5086V39.2876V42.6069C42.2469 42.8623 42.0419 43.0666 41.7858 43.0666H23.7506C23.4945 43.0666 23.2895 42.8623 23.2895 42.6069V39.2876V35.5086V31.7296V27.9506V24.6312C23.2895 24.3758 23.4945 24.1716 23.7506 24.1716H41.7858C42.0419 24.1716 42.2469 24.3758 42.2469 24.6312V27.9506Z" fill="#1A4A73"/>
<path d="M38.4555 35.5087V31.7297V28.7678C38.4555 28.3082 38.0968 27.9507 37.6357 27.9507H27.9008C27.4397 27.9507 27.0811 28.3082 27.0811 28.7678V31.7297V35.5087V38.4706C27.0811 38.9302 27.4397 39.2877 27.9008 39.2877H37.6869C38.1481 39.2877 38.5067 38.9302 38.5067 38.4706V35.5087H38.4555Z" fill="#1A4A73"/>
<path d="M103.781 20.3926C103.32 20.3926 102.962 20.7501 102.962 21.2097V24.1716V27.9506V31.7296V35.5086V39.2876V43.0666V46.0285C102.962 46.4881 103.32 46.8456 103.781 46.8456H128.733C129.195 46.8456 129.553 46.4881 129.553 46.0285V43.0666V39.2876V35.5086V31.7296V27.9506V24.1716V21.2097C129.553 20.7501 129.195 20.3926 128.733 20.3926H103.781ZM125.762 27.9506V31.7296V35.5086V39.2876V42.6069C125.762 42.8623 125.557 43.0666 125.301 43.0666H107.266C107.009 43.0666 106.804 42.8623 106.804 42.6069V39.2876V35.5086V31.7296V27.9506V24.6312C106.804 24.3758 107.009 24.1716 107.266 24.1716H125.301C125.557 24.1716 125.762 24.3758 125.762 24.6312V27.9506Z" fill="#1A4A73"/>
<path d="M121.97 35.5087V31.7297V28.7678C121.97 28.3082 121.611 27.9507 121.15 27.9507H111.364C110.903 27.9507 110.544 28.3082 110.544 28.7678V31.7297V35.5087V38.4706C110.544 38.9302 110.903 39.2877 111.364 39.2877H121.15C121.611 39.2877 121.97 38.9302 121.97 38.4706V35.5087Z" fill="#1A4A73"/>
<path d="M20.3178 103.582C19.8567 103.582 19.498 103.939 19.498 104.399V107.361V111.14V114.919V118.698V122.477V126.256V129.217C19.498 129.677 19.8567 130.035 20.3178 130.035H45.2698C45.7309 130.035 46.0896 129.677 46.0896 129.217V126.256V122.477V118.698V114.919V111.14V107.361V104.399C46.0896 103.939 45.7309 103.582 45.2698 103.582H20.3178ZM42.2469 111.191V114.97V118.749V122.528V125.847C42.2469 126.102 42.0419 126.307 41.7858 126.307H23.7506C23.4945 126.307 23.2895 126.102 23.2895 125.847V122.528V118.749V114.97V111.191V107.871C23.2895 107.616 23.4945 107.412 23.7506 107.412H41.7858C42.0419 107.412 42.2469 107.616 42.2469 107.871V111.191Z" fill="#1A4A73"/>
<path d="M38.4555 118.749V114.97V112.008C38.4555 111.548 38.0968 111.191 37.6357 111.191H27.9008C27.4397 111.191 27.0811 111.548 27.0811 112.008V114.97V118.749V121.711C27.0811 122.17 27.4397 122.528 27.9008 122.528H37.6869C38.1481 122.528 38.5067 122.17 38.5067 121.711V118.749H38.4555Z" fill="#1A4A73"/>
<path d="M10.0193 181H138.981C142.875 181 146 177.834 146 174.004V10.9962C146 7.11512 142.823 4 138.981 4H10.0706C6.17664 4 3.05124 7.16619 3 10.9962V174.004C3 177.885 6.17664 181 10.0193 181ZM8.43103 13.1411C8.43103 11.0473 10.1218 9.36209 12.2225 9.36209H136.829C138.929 9.36209 140.62 11.0473 140.62 13.1411V137.388C140.62 139.482 138.929 141.167 136.829 141.167H12.2225C10.1218 141.167 8.43103 139.482 8.43103 137.388V13.1411Z" stroke="#EA5E45" stroke-width="2"/>
<path d="M58.8474 85.6571V64.9237C58.8474 64.5151 59.1548 64.2087 59.5647 64.2087H66.4816C71.0416 64.2087 73.1935 66.5068 73.1935 70.2347C73.1935 72.4306 72.0663 74.0648 70.0681 74.9329C72.3225 75.6989 74.0133 77.6395 74.0133 80.0907C74.0133 84.2272 71.0928 86.3721 66.5841 86.3721H59.5647C59.1548 86.321 58.8474 86.0146 58.8474 85.6571ZM69.5045 70.3879C69.5045 68.3963 68.4286 67.2728 66.0717 67.2728H62.4852V73.6052H66.2254C68.4286 73.5541 69.5045 72.3285 69.5045 70.3879ZM66.0205 76.3628H62.5364V83.308H66.1229C68.736 83.308 70.2731 82.2356 70.2731 79.8354C70.2731 77.4352 68.5823 76.3628 66.0205 76.3628Z" fill="#EA5E45"/>
<path d="M91.126 68.1409V64.9237C91.126 64.5151 90.8186 64.2087 90.4087 64.2087H77.0873C76.6262 64.2087 76.2163 64.6173 76.2163 65.0769V67.9367C76.2163 68.1409 76.2675 68.3963 76.4213 68.5495L80.3152 74.8308C80.5201 75.0861 80.5201 75.4436 80.3152 75.6989L76.4213 81.9802C76.2675 82.1845 76.2163 82.3888 76.2163 82.5931V85.6571C76.2163 86.0656 76.5237 86.3721 76.9336 86.3721H90.46C90.8698 86.3721 91.1773 86.0656 91.1773 85.6571V82.4399C91.1773 82.0313 90.8698 81.7249 90.46 81.7249H88.5642C88.2056 81.7249 87.8981 81.9802 87.8469 82.3377L87.7444 83.2569H79.8541L84.4141 75.6479C84.5678 75.3925 84.5678 75.0861 84.4141 74.8308L79.8541 67.2728H87.7444L87.8469 68.192C87.8981 68.5495 88.2056 68.8048 88.5642 68.8048H90.4087C90.8186 68.8048 91.126 68.4984 91.126 68.1409Z" fill="#EA5E45"/>
<path d="M89.0255 77.3841C90.1857 77.3841 91.1262 76.4467 91.1262 75.2903C91.1262 74.1339 90.1857 73.1965 89.0255 73.1965C87.8653 73.1965 86.9248 74.1339 86.9248 75.2903C86.9248 76.4467 87.8653 77.3841 89.0255 77.3841Z" fill="#EA5E45"/>
<path d="M20.4716 160.114L37.2771 153.628C38.0456 153.373 38.7117 153.832 38.5067 155.007L35.6375 168.438C35.4326 169.408 34.869 169.612 34.0492 169.152L29.6941 165.935L27.5934 167.927C27.3373 168.182 27.1836 168.335 26.7224 168.335L27.0298 163.944L35.1252 156.692C35.4838 156.386 35.0227 156.232 34.5616 156.539L24.6217 162.82L20.3179 161.492C19.3444 161.186 19.3444 160.522 20.4716 160.114Z" fill="#EA5E45"/>
<path d="M54.595 158.326H51.9819V156.488H59.3599V158.326H56.7981V166.446H54.595V158.326Z" fill="white"/>
<path d="M62.0754 156.488H68.2238V158.326H64.2786V160.573H68.0701V162.309H64.2786V164.608H68.3775V166.446H62.0754V156.488Z" fill="white"/>
<path d="M73.45 164.556H77.1902V166.446H71.2468V156.488H73.45V164.556Z" fill="white"/>
<path d="M79.9055 156.488H86.0538V158.326H82.1087V160.573H85.9001V162.309H82.1087V164.608H86.2076V166.446H79.9055V156.488Z" fill="white"/>
<path d="M95.6864 166.037C94.9691 166.344 93.7394 166.599 92.5097 166.599C90.3578 166.599 88.7183 165.425 88.7183 163.178V159.909C88.7183 157.56 90.4603 156.334 92.8684 156.334C94.0468 156.334 95.0203 156.59 95.4814 156.794L95.174 158.53C94.7129 158.377 93.8931 158.173 93.1246 158.173C91.7412 158.173 90.9726 158.837 90.9726 160.011V163.075C90.9726 164.199 91.6387 164.761 92.8171 164.761C93.1758 164.761 93.5344 164.71 93.7906 164.658V161.441H95.7376V166.037H95.6864Z" fill="white"/>
<path d="M102.398 156.488C104.448 156.488 105.985 157.56 105.985 159.552V160.216C105.985 161.543 105.268 162.412 104.294 162.871L106.139 166.446H103.782L102.245 163.229H101.015V166.446H98.8118V156.488H102.398ZM101.015 158.224V161.595H102.347C103.218 161.595 103.782 161.135 103.782 160.216V159.552C103.782 158.684 103.218 158.224 102.347 158.224H101.015Z" fill="white"/>
<path d="M114.746 166.446L114.183 164.301H111.108L110.545 166.446H108.188L111.057 156.488H114.183L117.052 166.446H114.746ZM111.467 162.616H113.824L112.646 158.173L111.467 162.616Z" fill="white"/>
<path d="M127.35 159.807L125.198 165.118H123.815L121.663 159.807V166.446H119.665V156.488H122.329L124.481 162.412L126.684 156.488H129.348V166.446H127.35V159.807Z" fill="white"/>
</g>
<defs>
<clipPath id="clip0">
<rect width="149" height="192" fill="white"/>
</clipPath>
</defs>
</svg>
